<?xml version="1.0" encoding="UTF-8" standalone="no"?>
<!-- Creator: CorelDRAW X5 -->

<svg
   xml:space="preserve"
   width="90mm"
   height="50mm"
   style="shape-rendering:geometricPrecision; text-rendering:geometricPrecision; image-rendering:optimizeQuality; fill-rule:evenodd; clip-rule:evenodd"
   viewBox="0 0 9000 5000"
   version="1.1"
   id="svg32"
   sodipodi:docname="logo.svg"
   inkscape:version="1.2 (dc2aedaf03, 2022-05-15)"
   xmlns:inkscape="http://www.inkscape.org/namespaces/inkscape"
   xmlns:sodipodi="http://sodipodi.sourceforge.net/DTD/sodipodi-0.dtd"
   xmlns="http://www.w3.org/2000/svg"
   xmlns:svg="http://www.w3.org/2000/svg"><sodipodi:namedview
   id="namedview34"
   pagecolor="#505050"
   bordercolor="#eeeeee"
   borderopacity="1"
   inkscape:showpageshadow="0"
   inkscape:pageopacity="0"
   inkscape:pagecheckerboard="0"
   inkscape:deskcolor="#505050"
   inkscape:document-units="mm"
   showgrid="false"
   inkscape:zoom="8"
   inkscape:cx="237.6875"
   inkscape:cy="125.875"
   inkscape:window-width="2560"
   inkscape:window-height="1369"
   inkscape:window-x="1912"
   inkscape:window-y="-8"
   inkscape:window-maximized="1"
   inkscape:current-layer="Vrstva_x0020_1" />
 <defs
   id="defs21">
  <style
   type="text/css"
   id="style19">
   <![CDATA[
    .fil0 {fill:black}
    .fil1 {fill:#0026CC}
   ]]>
  </style>
 </defs>
 <g
   id="Vrstva_x0020_1"
   inkscape:label="Vrstva 1">
  <metadata
   id="CorelCorpID_0Corel-Layer" />
  <g
   id="gisoft.wmf">
   <path
   class="fil0"
   d="M299 3271l130 336 71 -184 2 -6 2 -6 2 -6 2 -6 2 -7 2 -6 2 -7 2 -7 1 7 2 7 1 6 2 6 2 6 2 7 2 6 2 7 75 184 125 -336 -55 0 -57 165 -3 7 -2 7 -2 7 -2 6 -2 7 -2 6 -2 6 -2 6 -2 -7 -2 -7 -2 -7 -2 -7 -2 -6 -2 -7 -2 -6 -2 -7 -67 -176 -64 172 -1 3 -2 4 -2 5 -2 7 -3 7 -2 8 -4 10 -3 11 -1 -7 -2 -7 -2 -7 -2 -7 -2 -6 -2 -7 -2 -6 -2 -7 -61 -162 -55 0zm553 320l178 0 0 -46 -128 0 0 -101 128 0 0 -49 -128 0 0 -79 128 0 0 -45 -178 0 0 320zm778 -158l37 158 46 0 -77 -334 -93 203 -2 4 -2 4 -2 5 -2 5 -2 7 -2 6 -3 7 -2 7 -3 -8 -3 -8 -2 -7 -2 -6 -2 -5 -2 -5 -1 -2 -2 -2 -94 -203 -79 334 49 0 37 -158 2 -6 1 -5 1 -6 0 -6 1 -6 0 -6 0 -5 0 -6 2 5 2 5 2 5 2 5 2 6 2 5 2 5 2 5 83 178 85 -174 2 -6 2 -5 2 -6 2 -6 2 -6 2 -6 2 -5 2 -6 1 8 2 7 1 7 1 6 1 5 1 4 1 4 0 3zm424 158l55 0 -156 -334 -158 334 59 0 37 -81 128 0 37 81zm-144 -125l33 -72 2 -3 2 -3 1 -4 2 -5 2 -5 1 -5 1 -6 1 -6 2 6 2 6 2 5 2 5 2 5 2 4 2 3 2 3 30 72 -87 0zm316 125l51 0 0 -162 128 162 67 0 -144 -178 128 -142 -65 0 -113 132 0 -132 -51 0 0 320zm365 0l178 0 0 -46 -130 0 0 -101 130 0 0 -49 -130 0 0 -79 130 0 0 -45 -178 0 0 320zm581 0l55 0 0 -146 110 -174 -53 0 -67 108 -2 2 -2 3 -2 3 -2 3 -2 3 -2 3 -1 4 -2 4 -4 -5 -2 -4 -3 -4 -2 -3 -2 -3 -2 -3 -1 -2 -1 -2 -69 -108 -56 0 111 174 0 146zm595 -158l-1 -18 -2 -16 -3 -16 -6 -15 -7 -15 -9 -14 -11 -14 -12 -13 -12 -11 -12 -10 -14 -7 -15 -7 -15 -6 -15 -3 -17 -2 -16 -1 -17 1 -17 2 -16 3 -16 6 -15 7 -14 7 -13 10 -12 11 -11 13 -11 14 -8 14 -7 15 -6 15 -4 16 -2 16 -1 18 1 16 2 15 4 15 6 15 7 15 8 15 11 14 11 13 12 11 13 10 14 9 15 7 16 6 16 5 17 2 17 1 16 -1 17 -2 15 -5 15 -6 15 -7 14 -9 12 -10 12 -11 12 -13 11 -14 9 -15 7 -15 6 -15 3 -15 2 -15 1 -16zm-52 0l-1 11 -2 11 -3 11 -4 11 -5 11 -6 10 -7 9 -7 9 -9 7 -10 7 -10 7 -10 5 -11 4 -11 3 -11 2 -11 1 -12 -1 -12 -2 -11 -3 -11 -4 -10 -5 -10 -7 -9 -7 -8 -7 -8 -9 -7 -9 -6 -10 -5 -11 -4 -11 -2 -11 -1 -11 -1 -11 1 -13 1 -12 2 -11 4 -11 5 -11 6 -10 7 -10 8 -9 8 -7 9 -7 10 -6 10 -5 11 -4 11 -3 12 -2 12 -1 11 1 11 2 11 3 11 4 10 5 10 6 10 7 9 7 7 9 7 10 6 10 5 11 4 11 3 11 2 12 1 13zm200 -162l0 199 1 15 2 15 2 14 3 13 5 11 6 11 7 10 7 9 9 8 10 7 10 7 11 4 13 4 13 2 14 2 15 1 16 -1 15 -2 14 -2 13 -4 12 -4 11 -7 10 -7 8 -8 8 -9 7 -10 6 -11 4 -11 3 -13 3 -14 1 -15 1 -15 0 -199 -51 0 0 193 -2 20 -3 18 -7 15 -8 12 -11 10 -14 7 -17 4 -19 2 -17 -2 -15 -4 -13 -7 -11 -10 -9 -12 -7 -15 -3 -18 -2 -20 0 -193 -51 0zm468 174l8 0 103 146 61 0 -112 -147 16 -2 15 -6 13 -7 11 -10 9 -12 7 -14 3 -16 2 -18 -1 -11 -2 -11 -2 -10 -4 -9 -5 -8 -5 -8 -6 -7 -6 -7 -8 -4 -8 -3 -9 -3 -10 -2 -11 -2 -11 -1 -11 -1 -13 0 -71 0 0 320 46 0 0 -146zm4 -40l0 -90 11 0 16 0 14 2 11 2 9 4 7 6 5 8 3 11 1 14 -1 12 -3 10 -5 8 -7 5 -10 4 -11 2 -14 2 -15 0 -11 0zm432 -134l128 336 71 -184 2 -6 2 -6 2 -6 2 -6 2 -7 2 -6 2 -7 2 -7 2 7 1 7 2 6 2 6 2 6 2 7 2 6 2 7 73 184 125 -336 -55 0 -57 165 -2 7 -2 7 -2 7 -2 6 -2 7 -2 6 -2 6 -1 6 -2 -7 -2 -7 -2 -7 -2 -7 -2 -6 -2 -7 -2 -6 -2 -7 -67 -176 -65 172 -1 3 -2 4 -2 5 -2 7 -2 7 -3 8 -2 10 -3 11 -2 -7 -2 -7 -2 -7 -2 -7 -2 -6 -2 -7 -2 -6 -3 -7 -60 -162 -53 0zm877 162l-1 -18 -2 -16 -3 -16 -6 -15 -7 -15 -9 -14 -10 -14 -11 -13 -12 -11 -13 -10 -14 -7 -15 -7 -15 -6 -16 -3 -16 -2 -16 -1 -18 1 -17 2 -16 3 -15 6 -15 7 -14 7 -13 10 -11 11 -12 13 -10 14 -9 14 -7 15 -5 15 -4 16 -2 16 -1 18 1 16 2 15 4 15 5 15 7 15 9 15 10 14 12 13 11 11 13 10 14 9 15 7 15 6 16 5 17 2 18 1 16 -1 16 -2 16 -5 15 -6 15 -7 14 -9 13 -10 12 -11 11 -13 10 -14 9 -15 7 -15 6 -15 3 -15 2 -15 1 -16zm-53 0l-1 11 -2 11 -3 11 -4 11 -5 11 -6 10 -7 9 -7 9 -8 7 -10 7 -9 7 -11 5 -11 4 -11 3 -11 2 -11 1 -12 -1 -11 -2 -11 -3 -11 -4 -10 -5 -10 -7 -10 -7 -8 -7 -8 -9 -7 -9 -7 -10 -5 -11 -3 -11 -2 -11 -2 -11 -1 -11 1 -13 2 -12 2 -11 3 -11 5 -11 7 -10 7 -10 8 -9 8 -7 10 -7 10 -6 10 -5 11 -4 11 -3 11 -2 12 -1 11 1 11 2 11 3 11 4 11 5 9 6 10 7 8 7 7 9 7 10 6 10 5 11 4 11 3 11 2 12 1 13zm249 12l7 0 105 146 61 0 -112 -147 16 -2 15 -6 12 -7 11 -10 8 -12 6 -14 4 -16 1 -18 -1 -11 -2 -11 -2 -10 -3 -9 -5 -8 -5 -8 -6 -7 -7 -7 -8 -4 -8 -3 -9 -3 -10 -2 -11 -2 -11 -1 -12 -1 -12 0 -69 0 0 320 46 0 0 -146zm2 -40l0 -90 10 0 17 0 15 2 11 2 10 4 7 6 5 8 3 11 1 14 -1 12 -4 10 -5 8 -8 5 -10 4 -12 2 -14 2 -15 0 -10 0zm288 186l51 0 0 -162 128 162 67 0 -144 -178 128 -142 -65 0 -113 132 0 -132 -51 0 0 320zm551 0l178 0 0 -46 -128 0 0 -101 128 0 0 -49 -128 0 0 -79 128 0 0 -45 -178 0 0 320zm539 0l55 0 -156 -334 -158 334 57 0 38 -81 128 0 37 81zm-144 -125l33 -72 2 -3 2 -3 1 -4 2 -5 2 -5 1 -5 1 -6 1 -6 2 6 2 6 2 5 2 5 2 5 2 4 2 3 2 3 30 72 -87 0zm296 61l7 15 8 15 10 13 11 11 13 9 15 7 18 4 20 2 24 -2 21 -6 18 -9 15 -12 12 -15 9 -17 6 -20 2 -20 -2 -16 -3 -15 -7 -13 -9 -12 -11 -11 -15 -10 -18 -9 -20 -9 -12 -6 -11 -6 -10 -6 -9 -7 -7 -7 -5 -7 -4 -9 -1 -11 1 -8 2 -7 3 -7 6 -6 7 -5 7 -4 10 -2 11 -1 7 1 7 1 7 2 6 3 5 5 5 5 6 7 5 7 41 -22 -6 -11 -8 -10 -9 -9 -11 -7 -12 -6 -15 -5 -16 -2 -18 -1 -20 2 -18 4 -16 7 -13 10 -11 13 -8 15 -5 17 -2 20 2 16 4 14 7 13 10 11 12 11 15 11 17 11 20 11 12 6 11 5 9 5 8 6 7 7 5 7 3 9 1 11 -1 10 -2 9 -5 8 -6 7 -7 6 -9 5 -10 2 -11 1 -11 -1 -11 -2 -10 -3 -7 -5 -7 -7 -5 -8 -5 -9 -2 -10 -45 20zm353 64l51 0 0 -320 -51 0 0 320zm217 0l178 0 0 -46 -128 0 0 -101 128 0 0 -49 -128 0 0 -79 128 0 0 -45 -178 0 0 320zm373 -146l8 0 103 146 61 0 -112 -147 16 -2 15 -6 13 -7 11 -10 9 -12 7 -14 3 -16 2 -18 -1 -11 -2 -11 -2 -10 -4 -9 -5 -8 -5 -8 -6 -7 -6 -7 -8 -4 -8 -3 -9 -3 -10 -2 -11 -2 -11 -1 -11 -1 -13 0 -71 0 0 320 47 0 0 -146zm4 -40l0 -90 10 0 16 0 14 2 11 2 9 4 7 6 5 8 3 11 1 14 -1 12 -3 10 -5 8 -7 5 -10 4 -11 2 -14 2 -15 0 -10 0z"
   id="path24" />
   <path
   class="fil1"
   d="M2277 2551l-2 -23 -2 -22 -2 -20 -2 -20 -2 -20 -1 -18 -1 -17 -1 -17 -1 -15 0 -15 -1 -15 0 -14 0 -14 0 -13 0 -12 0 -12 0 -14 0 -15 0 -15 0 -17 0 -17 1 -19 0 -20 1 -20 1 -20 1 -22 1 -22 2 -23 2 -24 2 -24 2 -25 2 -25 -14 0 -14 1 -13 1 -13 1 -13 2 -12 1 -11 2 -12 2 -11 2 -11 2 -11 1 -11 2 -10 1 -10 1 -10 1 -9 0 -9 0 -10 -1 -9 -1 -11 -1 -10 -2 -11 -1 -11 -2 -11 -2 -11 -2 -12 -2 -12 -1 -13 -2 -13 -1 -14 -1 -14 -1 -15 0 3 29 2 29 2 29 2 29 2 29 2 29 1 29 1 29 1 28 1 29 0 28 1 28 0 27 0 28 0 27 0 26 0 47 -12 5 -11 5 -12 4 -11 3 -12 2 -11 2 -11 2 -11 1 -12 2 -11 1 -11 1 -11 0 -11 1 -11 0 -11 0 -11 0 -26 -1 -24 -2 -24 -3 -24 -4 -23 -6 -23 -7 -21 -8 -21 -9 -20 -11 -20 -11 -20 -12 -18 -14 -17 -15 -17 -16 -15 -16 -15 -19 -15 -19 -13 -20 -13 -21 -11 -22 -11 -24 -10 -24 -10 -25 -8 -25 -7 -27 -7 -28 -6 -29 -4 -30 -3 -30 -3 -31 -1 -33 -1 -33 1 -34 2 -34 2 -33 4 -32 4 -32 6 -30 7 -29 7 -29 9 -28 10 -26 10 -25 11 -24 13 -24 13 -22 14 -21 15 -20 15 -19 17 -18 17 -17 18 -15 19 -15 20 -13 20 -12 21 -11 21 -10 22 -9 23 -7 24 -6 24 -5 24 -3 25 -2 26 -1 32 1 31 2 30 5 29 7 29 8 28 11 27 12 25 14 25 16 24 18 23 20 22 22 21 24 20 26 20 29 18 31 16 0 2 -17 3 -16 3 -17 4 -16 4 -15 4 -16 5 -16 5 -15 5 -16 6 -16 6 -15 6 -16 6 -17 6 -16 7 -17 6 -17 -29 -15 -30 -13 -30 -13 -30 -11 -30 -11 -31 -10 -32 -10 -31 -8 -33 -7 -32 -7 -33 -6 -33 -5 -33 -3 -34 -2 -34 -2 -34 -1 -47 1 -46 2 -45 4 -44 7 -42 7 -42 9 -39 11 -39 12 -37 14 -36 15 -35 16 -33 19 -32 20 -30 20 -29 23 -27 24 -26 25 -24 26 -22 28 -21 29 -20 30 -18 31 -16 33 -15 33 -13 35 -11 36 -10 37 -8 37 -6 39 -5 40 -2 41 -1 42 1 42 2 41 4 40 6 38 7 37 8 37 11 36 11 35 14 33 15 32 15 31 18 30 19 29 21 27 21 27 24 24 24 24 26 23 27 20 29 20 30 19 31 16 33 15 33 14 34 12 37 11 37 9 38 7 40 7 40 4 42 2 42 1 18 0 18 -1 18 0 18 -2 18 -1 19 -2 18 -2 19 -2 19 -2 20 -2 19 -2 19 -3 20 -2 20 -3 19 -3 20 -4 20 -3 20 -4 20 -4 20 -4 20 -4 20 -5 20 -4 20 -5 20 -5 20 -6 20 -5 20 -6 20 -5 20 -6 20 -6 20 -6zm2545 321l-292 0 -7 1 -7 2 -6 4 -6 6 -4 7 -3 8 -2 10 -1 11 0 0 1 10 2 8 3 8 4 7 6 6 6 4 7 2 7 1 779 0 8 -1 7 -2 6 -4 6 -6 3 -7 3 -8 2 -8 1 -10 0 0 -1 -11 -2 -10 -3 -8 -3 -7 -6 -6 -6 -4 -7 -2 -8 -1 -409 0 54 -213 9 0 10 0 10 0 11 0 11 0 11 0 11 0 11 0 42 -1 41 -2 39 -5 38 -6 38 -8 36 -10 36 -11 34 -13 33 -14 33 -16 31 -17 30 -19 29 -20 28 -22 26 -23 25 -24 24 -25 22 -27 21 -28 20 -29 18 -29 16 -32 15 -32 14 -33 12 -34 11 -35 9 -36 7 -37 7 -37 4 -38 2 -40 1 -40 -1 -33 -2 -32 -2 -32 -3 -31 -5 -30 -5 -29 -7 -29 -7 -29 -9 -28 -9 -28 -11 -26 -11 -26 -12 -25 -13 -24 -14 -24 -15 -23 -15 -22 -16 -21 -18 -21 -18 -20 -19 -19 -20 -19 -20 -17 -22 -17 -22 -15 -23 -15 -24 -14 -24 -13 -25 -12 -26 -11 -27 -11 -28 -9 52 -212 1 -8 0 -8 -2 -8 -2 -7 -4 -6 -6 -6 -7 -4 -8 -3 -8 -1 -7 1 -7 2 -6 3 -6 5 -5 5 -3 7 -2 6 -52 215 -2 0 -1 0 -1 -1 0 -1 -20 80 -1 1 -1 1 0 0 0 0 23 7 21 8 21 8 20 9 20 11 19 11 19 11 17 13 17 14 16 14 15 15 15 16 14 17 14 17 12 19 12 20 11 20 10 21 10 21 10 23 8 24 7 24 7 25 6 25 6 27 5 27 4 28 3 29 2 29 2 30 2 31 0 32 -1 40 -2 39 -2 37 -4 37 -6 35 -6 34 -8 33 -8 32 -10 30 -11 29 -11 28 -13 27 -14 26 -15 24 -15 24 -17 21 -18 21 -19 19 -20 18 -21 17 -21 15 -23 14 -24 13 -24 11 -25 10 -26 9 -28 7 -28 7 -29 4 -29 4 -31 2 -31 1 -10 0 -9 0 -9 0 -9 -1 -9 0 -9 -1 -8 0 -9 -1 -8 -1 -9 -1 -8 -1 -8 -2 -9 -1 -8 -2 -8 -1 -8 -2 -21 94 0 1 0 1 0 0 0 0 -54 207 -1 3 -1 4 0 3 0 4zm311 -1613l0 -2 1 -2 1 -2 2 -2 16 -72 -14 -2 -14 -2 -15 -2 -15 -1 -15 -1 -15 -1 -14 0 -15 0 -43 1 -42 2 -41 4 -40 7 -39 7 -38 9 -37 11 -35 12 -34 14 -33 15 -32 16 -31 19 -29 20 -28 20 -27 23 -25 24 -24 25 -23 26 -21 28 -20 29 -19 30 -17 31 -15 33 -14 33 -13 35 -11 36 -9 37 -7 37 -7 39 -4 40 -2 41 -1 42 1 34 2 33 2 33 4 32 5 32 6 31 7 31 8 29 9 29 11 28 11 28 11 27 14 26 14 25 15 24 16 24 17 23 18 22 20 21 20 20 21 20 22 18 23 18 24 16 24 15 26 14 26 14 28 12 28 11 29 11 30 10 31 8 24 -101 -20 -7 -20 -9 -20 -9 -19 -11 -18 -11 -18 -11 -17 -13 -16 -13 -15 -14 -15 -15 -15 -15 -14 -16 -13 -17 -12 -18 -12 -18 -11 -20 -11 -20 -10 -20 -9 -22 -9 -22 -8 -22 -7 -24 -7 -24 -6 -24 -6 -25 -4 -26 -4 -27 -3 -28 -2 -29 -2 -29 -2 -29 0 -30 1 -40 2 -39 2 -37 5 -37 5 -35 7 -34 7 -33 9 -32 10 -30 11 -29 12 -28 13 -27 14 -25 15 -24 16 -23 17 -22 19 -20 19 -19 21 -18 21 -16 23 -15 23 -14 25 -12 25 -11 26 -11 28 -8 29 -7 29 -7 30 -5 32 -3 32 -2 33 -1 12 0 12 0 12 1 12 1 12 1 11 2 12 2 11 2zm-2605 1354l17 -3 17 -2 15 -2 15 -2 15 -2 13 -2 12 -1 12 -1 11 -1 10 -1 10 0 9 -1 8 0 7 0 7 0 6 0 9 0 10 0 11 0 11 0 11 1 12 0 13 1 13 1 13 1 14 1 14 2 14 2 14 2 15 2 14 2 15 3 -1 -24 -2 -23 -1 -23 -1 -23 -1 -22 -1 -23 -1 -22 -1 -21 -1 -22 -1 -21 0 -21 -1 -20 -1 -21 0 -20 -1 -20 0 -20 0 -19 -1 -20 0 -19 0 -19 0 -19 -1 -18 0 -17 0 -18 0 -17 0 -16 0 -17 0 -15 0 -16 0 -15 0 -15 0 -15 0 -77 0 -20 0 -20 0 -20 0 -20 0 -21 0 -20 0 -21 0 -21 0 -21 0 -21 1 -21 0 -22 0 -21 0 -22 1 -22 0 -22 0 -23 1 -22 0 -23 1 -23 1 -23 0 -23 1 -23 1 -24 1 -23 1 -24 1 -24 1 -24 1 -24 1 -24 2 -24 1 -24 -14 2 -14 2 -14 2 -13 2 -13 2 -13 1 -12 1 -11 1 -12 1 -11 0 -11 1 -11 0 -10 0 -10 0 -10 0 -9 0 -8 0 -9 0 -10 0 -10 0 -10 0 -11 -1 -11 0 -12 -1 -12 -1 -13 -1 -14 -1 -15 -2 -15 -2 -15 -2 -17 -2 -17 -2 2 24 3 24 2 24 2 24 2 24 2 24 2 24 2 23 2 24 2 23 1 23 2 23 1 23 1 23 1 22 1 23 1 22 1 22 0 22 1 21 0 22 1 21 0 21 0 21 1 21 0 21 0 20 0 21 0 20 0 20 0 20 0 20 0 15 0 15 0 15 0 16 0 16 0 17 0 17 -1 18 0 18 0 19 -1 20 0 20 -1 20 0 20 -1 21 -1 21 -1 23 -1 22 -1 23 -1 24 -2 24 -1 24 -2 25 -2 25 -2 25 -2 27 -2 26 -2 28 -2 28 -2 28 -3 29 -2 29zm634 -34l18 9 18 8 19 8 20 7 20 7 21 7 22 7 22 6 23 5 24 4 24 4 24 3 24 2 25 2 25 2 26 0 34 -1 33 -2 33 -2 32 -4 31 -5 29 -6 29 -7 29 -8 26 -9 26 -10 24 -11 24 -11 23 -13 22 -14 20 -14 20 -15 19 -16 17 -17 16 -18 15 -18 14 -20 13 -20 11 -21 11 -22 9 -22 8 -24 7 -24 6 -24 4 -25 3 -26 2 -27 1 -27 -2 -44 -5 -40 -8 -37 -11 -34 -14 -31 -18 -29 -20 -26 -23 -25 -26 -23 -28 -22 -31 -20 -33 -20 -36 -20 -37 -19 -40 -20 -42 -20 -34 -17 -33 -15 -30 -15 -29 -14 -26 -13 -24 -13 -22 -13 -20 -13 -18 -14 -15 -14 -13 -15 -11 -16 -8 -17 -7 -19 -3 -20 -2 -23 1 -20 2 -20 5 -18 7 -17 7 -16 10 -15 11 -14 13 -13 15 -11 16 -10 17 -9 20 -7 20 -6 22 -5 24 -2 25 -1 26 1 24 2 24 3 23 6 21 7 21 9 20 10 19 12 18 14 17 16 16 18 15 20 15 22 14 24 13 26 12 29 11 0 6 -18 6 -17 5 -17 6 -16 5 -16 5 -17 5 -16 5 -16 5 -15 6 -16 6 -16 7 -16 7 -16 7 -17 8 -16 9 -17 -20 -11 -21 -11 -21 -10 -21 -9 -22 -8 -23 -8 -23 -7 -24 -7 -24 -6 -24 -4 -24 -4 -24 -4 -25 -2 -25 -2 -25 -2 -26 0 -59 2 -56 7 -53 10 -51 13 -46 17 -43 20 -40 24 -36 28 -33 30 -29 34 -24 37 -20 40 -15 43 -12 46 -7 48 -2 51 2 39 5 37 8 34 11 32 15 30 17 29 20 26 24 25 26 24 29 23 32 23 34 22 37 22 40 22 42 22 45 22 31 15 29 13 28 14 26 13 24 12 21 13 20 13 18 14 15 14 14 15 12 15 10 17 7 18 6 19 3 21 1 22 -1 24 -3 22 -6 20 -7 20 -10 19 -11 16 -13 15 -15 14 -17 13 -19 11 -20 10 -22 8 -24 6 -25 5 -27 2 -29 1 -31 -1 -30 -3 -29 -6 -27 -7 -25 -10 -24 -12 -22 -14 -20 -15 -19 -18 -17 -20 -15 -21 -14 -24 -12 -26 -11 -28 -8 -29 -7 -31 -28 0 -3 20 -3 20 -4 20 -4 20 -4 20 -4 21 -5 20 -4 21 -4 21 -5 21 -4 22 -4 21 -4 22 -4 22 -3 22 -3 23zm2787 34l11 -6 11 -5 11 -3 12 -2 11 -2 11 -1 12 0 12 0 11 0 11 0 12 1 11 2 11 2 11 3 11 5 11 6 0 -12 0 -12 0 -12 0 -13 0 -14 0 -14 0 -14 0 -15 0 -15 0 -15 0 -15 0 -16 0 -15 0 -16 0 -16 0 -17 0 -464 60 0 19 0 20 0 21 0 23 0 24 1 25 0 26 1 28 0 29 2 30 1 31 1 33 2 34 2 34 2 37 2 37 3 0 -7 0 -7 0 -7 0 -7 0 -8 0 -8 0 -10 0 -11 0 -7 0 -8 0 -8 0 -9 0 -9 0 -8 0 -8 0 -7 -25 3 -25 2 -25 2 -24 2 -24 2 -24 1 -23 1 -22 1 -22 1 -20 1 -20 0 -19 1 -18 0 -17 0 -15 0 -15 0 -171 0 0 -200 0 -17 0 -18 0 -18 0 -19 0 -19 0 -20 0 -19 0 -20 0 -20 0 -20 0 -20 0 -20 0 -20 0 -20 0 -20 0 -20 47 0 43 0 42 0 40 0 39 1 37 0 36 1 34 1 33 2 31 2 29 2 28 2 27 3 25 3 24 4 22 5 21 6 -1 -11 -2 -10 -2 -9 -2 -8 -2 -7 -2 -7 -2 -6 -1 -7 1 -10 2 -9 2 -9 2 -9 2 -8 2 -9 2 -11 1 -11 -37 0 -36 1 -36 0 -33 1 -33 2 -32 1 -31 2 -29 1 -29 1 -27 2 -26 1 -25 1 -24 2 -23 0 -21 1 -20 0 -20 0 -20 -1 -20 0 -20 -2 -19 -1 -18 -1 -18 -2 -18 -1 -17 -1 -16 -2 -16 -1 -16 -2 -15 -1 -15 0 -15 -1 -15 0 1 32 2 31 1 32 1 30 1 31 1 30 1 30 1 30 1 29 1 29 0 29 1 29 1 29 0 28 1 29 0 28 0 27 1 28 0 27 0 26 0 27 1 25 0 26 0 25 0 25 0 25 0 24 0 24 0 24 0 24 0 24 0 23 0 19 0 19 0 18 0 19 0 18 0 18 0 18 0 18 0 17 0 17 -1 18 0 17 0 17 0 16 -1 17 0 16 0 16 -1 16 0 16 -1 16 -1 15 0 16 -1 15 -1 15 -1 15 -1 15 -1 15 -1 15 -1 15 -1 15 -2 15 -1 15zm1331 0l17 0 15 0 14 0 13 0 13 0 12 0 13 0 13 0 11 0 11 0 11 0 11 0 11 0 12 0 12 0 12 0 -2 -36 -2 -36 -2 -35 -1 -34 -2 -33 -1 -33 -2 -32 -1 -32 -1 -32 -1 -30 -1 -30 -1 -29 0 -29 -1 -28 -1 -28 0 -27 -1 -26 0 -26 -1 -25 0 -24 0 -24 0 -24 -1 -23 0 -22 0 -22 0 -21 0 -20 0 -20 0 -20 0 -20 0 -18 0 -18 0 -31 0 -31 0 -31 0 -30 1 -30 0 -30 1 -29 1 -29 1 -29 1 -29 2 -29 2 -28 2 -27 2 -28 2 -27 3 -26 46 0 26 0 25 1 25 1 24 1 24 2 24 2 24 2 23 2 23 2 23 2 22 2 22 2 22 2 21 2 20 2 20 2 0 -6 0 -7 0 -8 0 -8 0 -9 0 -8 0 -7 0 -7 0 -6 0 -7 0 -8 0 -9 0 -9 0 -8 0 -7 0 -6 -17 0 -17 0 -18 0 -17 0 -17 0 -17 0 -17 0 -18 0 -17 0 -17 0 -17 0 -17 0 -17 0 -17 0 -17 0 -17 0 -17 0 -17 0 -17 0 -17 0 -16 0 -17 0 -17 0 -16 0 -17 0 -16 0 -17 0 -16 0 -16 0 -16 0 -16 0 -16 0 -32 0 -32 0 -32 0 -32 0 -31 0 -32 0 -31 0 -32 0 -31 0 -31 0 -30 0 -30 0 -30 0 -30 0 -29 0 -29 0 0 6 0 7 0 8 0 9 0 9 0 8 0 7 0 6 0 7 0 7 0 8 0 9 0 8 0 8 0 7 0 6 18 -2 19 -2 19 -2 20 -2 21 -2 21 -2 23 -2 24 -2 24 -2 25 -2 26 -2 27 -2 29 -1 29 -1 30 -1 31 0 46 0 0 342 0 29 0 29 0 29 0 29 0 29 0 29 0 29 0 30 0 29 0 30 -1 30 0 29 0 30 0 31 -1 30 0 30 0 31 -1 30 0 31 -1 31 -1 31 0 31 -1 31 -1 32 -1 31 -1 32 -1 32 -1 31 -1 32 -1 32 -2 33 -1 32z"
   id="path26" />
   <polygon
   class="fil1"
   points="318,3893 8497,3893 8497,3942 318,3942 "
   id="polygon28" />
  </g>
 <path
   style="fill:#ffffff;stroke-width:0.226319"
   d="M 57.004203,100.04516 C 50.76837,98.947183 46.300912,96.666709 42.343274,92.561286 40.14425,90.280147 39.14779,88.821738 37.791989,85.900066 35.928813,81.885031 35.172475,78.08754 35.175223,72.761563 c 0.0021,-4.003359 0.328433,-6.465308 1.26344,-9.530715 2.019002,-6.619273 6.649902,-12.055274 12.981969,-15.238938 2.282596,-1.147654 6.451839,-2.428125 9.648631,-2.963319 2.573471,-0.430839 3.537699,-0.479061 7.694847,-0.384827 4.039414,0.09157 5.168447,0.198314 7.522875,0.71127 4.211222,0.917495 10.695805,3.302788 10.695805,3.934352 0,0.0944 -0.315755,0.984069 -0.701677,1.977033 -0.901146,2.318613 -1.714179,5.007128 -1.910884,6.31885 -0.08506,0.567246 -0.270401,1.029242 -0.411862,1.026659 -0.141461,-0.0026 -0.642642,-0.609297 -1.113734,-1.34825 -2.370076,-3.717686 -5.56578,-6.089344 -9.811771,-7.281704 -2.570608,-0.721879 -6.704567,-0.689726 -9.250631,0.07195 -7.196091,2.152768 -11.798981,8.734494 -12.771292,18.261818 -0.673881,6.603118 0.140539,12.129643 2.502505,16.98161 0.980566,2.014287 1.425829,2.634383 3.1055,4.324884 3.287324,3.308519 6.413243,4.514942 11.718217,4.522547 2.737005,0.0039 4.626142,-0.225034 5.802025,-0.703185 L 72.761563,93.18852 72.7433,87.388263 c -0.01005,-3.190141 -0.143833,-7.429755 -0.297302,-9.421362 -0.153467,-1.991607 -0.24695,-3.663682 -0.207738,-3.715719 0.03921,-0.05204 1.318738,0.07704 2.843388,0.286854 3.432888,0.472401 4.759272,0.472998 8.022608,0.0036 1.414598,-0.203473 2.630373,-0.311569 2.701724,-0.240218 0.07135,0.07135 0.01718,1.474534 -0.12041,3.118181 -0.32652,3.900932 -0.300966,13.192746 0.04544,16.522062 l 0.272802,2.621953 -3.396077,0.936468 c -9.46998,2.611348 -19.5413,3.612468 -25.60353,2.545058 z"
   id="path401"
   transform="scale(26.458334)" /><path
   style="fill:#ffffff;stroke-width:0.226319"
   d="M 95.712784,97.610063 C 96.083981,94.696258 96.552989,86.914794 96.783855,79.839571 97.136279,69.039059 96.619063,52.613759 95.735631,46.550946 l -0.125735,-0.862887 1.645757,0.18393 c 2.127823,0.237807 9.598547,0.237677 11.461907,-1.98e-4 l 1.44235,-0.184129 -0.13449,0.976245 c -0.074,0.536935 -0.25319,4.642614 -0.39827,9.12373 -0.28095,8.678203 -0.13921,33.529595 0.22525,39.492669 0.11032,1.804894 0.18664,3.293428 0.16961,3.307853 -0.017,0.01442 -0.94756,-0.106168 -2.06784,-0.267989 -3.32068,-0.479656 -9.173975,-0.354202 -11.847779,0.253935 -0.514678,0.117059 -0.527371,0.08597 -0.393607,-0.964042 z"
   id="path403"
   transform="scale(26.458334)" /><path
   style="fill:#ffffff;stroke-width:0.226319"
   d="m 130.47291,100.34476 c -3.25056,-0.28435 -6.8841,-1.190756 -9.78829,-2.441757 -0.67646,-0.291385 -0.8487,-0.487787 -0.8487,-0.967719 0,-0.331175 0.50922,-3.122721 1.13159,-6.203434 0.62238,-3.080713 1.1316,-5.660003 1.1316,-5.731758 0,-0.07175 0.18748,-0.130461 0.41662,-0.130461 0.31908,0 0.48024,0.284261 0.68834,1.214124 1.37389,6.139189 6.73574,9.61864 13.48228,8.749023 3.2662,-0.421008 5.70642,-1.940595 6.84741,-4.264072 0.55672,-1.133675 0.63138,-1.540307 0.63083,-3.435885 -6.8e-4,-2.62022 -0.35221,-3.408754 -2.33912,-5.248284 -1.11416,-1.031521 -2.31695,-1.728065 -6.861,-3.973265 -3.0305,-1.497361 -6.47751,-3.359106 -7.66002,-4.137214 -2.78045,-1.82956 -5.32511,-4.391795 -6.29747,-6.340977 -1.51689,-3.040703 -1.736,-7.268982 -0.58289,-11.248127 0.81838,-2.824033 1.51829,-3.990442 3.71635,-6.193315 1.60964,-1.613167 2.31224,-2.130083 4.08181,-3.003063 3.24096,-1.598856 5.89619,-2.202811 10.30492,-2.343948 5.27187,-0.168768 9.50198,0.665088 13.42815,2.647012 l 1.35246,0.68272 -0.75197,1.650093 c -0.41358,0.907551 -1.18531,3.021991 -1.71496,4.698755 -0.52964,1.676765 -1.04131,3.135052 -1.13704,3.240639 -0.0957,0.105587 -0.615,-0.65559 -1.15394,-1.691506 -1.67782,-3.224967 -4.24695,-5.37869 -7.23894,-6.068456 -0.54623,-0.125925 -1.92612,-0.231445 -3.06643,-0.234488 -5.24826,-0.01401 -8.30981,2.532904 -8.29088,6.897197 0.0163,3.747417 1.06606,4.708606 9.90326,9.067337 3.61433,1.782684 7.50265,3.855479 8.64069,4.606206 4.95359,3.267728 6.91459,7.227362 6.5662,13.25842 -0.50314,8.710044 -5.98046,14.436793 -15.6682,16.381729 -2.20405,0.442494 -6.9122,0.740344 -8.92266,0.564474 z"
   id="path405"
   transform="scale(26.458334)" /><path
   style="fill:#ffffff;stroke-width:0.226319"
   d="m 178.5657,98.587978 c -1.12028,-0.408911 -2.49516,-0.975523 -3.0553,-1.259141 -3.38084,-1.71183 -6.99959,-4.875967 -9.04183,-7.905932 -1.9267,-2.858554 -3.54446,-6.954342 -4.25672,-10.777047 -0.58244,-3.125921 -0.52094,-10.162186 0.11372,-13.013344 1.23291,-5.538663 3.35817,-9.618511 6.92543,-13.294711 3.62819,-3.738983 8.04709,-6.052411 14.02476,-7.342387 1.90495,-0.411086 3.05992,-0.499868 6.64326,-0.510663 2.38559,-0.0072 4.41713,0.06647 4.51454,0.163687 0.0974,0.09721 0.0297,0.742262 -0.15053,1.433439 l -0.32763,1.256687 -3.96059,0.04846 c -4.66584,0.05709 -6.57218,0.457974 -9.84487,2.070292 -5.45729,2.688571 -8.77616,7.519319 -10.33542,15.043602 -0.63519,3.065147 -0.80787,9.856422 -0.33952,13.352822 0.86415,6.451084 3.46714,11.82788 7.21975,14.913258 1.0665,0.876864 3.97393,2.570482 5.32795,3.103601 0.0342,0.01347 -0.10879,0.80276 -0.3178,1.753972 -0.28248,1.285528 -0.47273,1.726574 -0.74118,1.718176 -0.19863,-0.0062 -1.27774,-0.345861 -2.39802,-0.75477 z"
   id="path407"
   transform="scale(26.458334)" /><path
   style="fill:#ffffff;stroke-width:0.226319"
   d="m 170.4533,111.61403 c -0.51696,-0.57123 -0.49353,-2.12413 0.0393,-2.60635 0.36193,-0.32754 1.12543,-0.37455 6.08308,-0.37455 h 5.66921 l 0.2549,-0.96186 c 0.4018,-1.51622 2.46099,-9.718055 2.61986,-10.435061 0.12523,-0.56518 0.22051,-0.629493 0.75525,-0.50982 1.51425,0.338877 5.56631,0.416726 7.56195,0.145281 6.5624,-0.892607 11.18804,-4.0115 14.04001,-9.466639 2.26964,-4.341277 3.10683,-7.936707 3.27795,-14.07767 0.13316,-4.7784 -0.13472,-7.879586 -0.96399,-11.160024 -1.08642,-4.297654 -2.68238,-7.292706 -5.20849,-9.774485 -2.07011,-2.033783 -3.97755,-3.167602 -7.16442,-4.258669 -0.35802,-0.122575 -0.35292,-0.239179 0.0731,-1.670815 0.25189,-0.846474 0.91272,-3.368496 1.46852,-5.604493 0.5558,-2.235998 1.17522,-4.247408 1.37648,-4.469801 0.73799,-0.815476 2.10633,-0.214576 2.10633,0.924988 0,0.401124 -1.4813,6.665578 -1.94049,8.20637 -0.0774,0.259874 0.0768,0.415891 0.51908,0.524891 0.34611,0.08531 1.56967,0.599094 2.71902,1.141749 6.28691,2.968298 10.69961,8.002815 12.95142,14.776472 1.06144,3.192899 1.37853,5.116145 1.52189,9.230686 0.10773,3.09187 0.0562,4.335962 -0.25774,6.223773 -1.04928,6.309425 -3.63427,11.432917 -7.77962,15.419352 -3.13097,3.010932 -6.19681,4.820287 -10.43773,6.159994 -2.66154,0.840779 -5.05824,1.207011 -9.10074,1.390651 l -3.54426,0.161 -1.01153,4.04207 -1.01152,4.04206 7.95057,0.003 c 4.37282,0.002 8.07151,0.0804 8.21932,0.17434 0.1478,0.094 0.38001,0.46355 0.51601,0.82126 0.29283,0.7702 -0.0403,2.05243 -0.58789,2.26255 -0.19088,0.0733 -7.09553,0.13317 -15.34367,0.13317 -14.24107,0 -15.0155,-0.0209 -15.37118,-0.41388 z"
   id="path409"
   transform="scale(26.458334)" /><path
   style="fill:#ffffff;stroke-width:0.226319"
   d="m 225.23109,95.095887 c 0.2393,-4.354396 0.23527,-33.767065 -0.006,-42.564829 l -0.18849,-6.877684 3.13063,0.201273 c 3.96243,0.25475 9.96525,0.252155 18.15033,-0.0078 l 6.41957,-0.203921 -0.19416,0.772318 c -0.24291,0.96623 -0.24998,2.589889 -0.0153,3.511851 l 0.17886,0.70266 -1.5501,-0.293104 c -2.59537,-0.490751 -7.56409,-0.77085 -13.69137,-0.771818 l -5.82772,-9.21e-4 v 9.731718 9.731718 l 5.0356,-0.0023 c 4.80711,-0.002 11.9008,-0.303008 13.46598,-0.571232 l 0.73554,-0.126048 v 2.372377 2.372376 l -0.73554,-0.09942 C 248.51668,72.753895 239.95861,72.422098 235.925,72.422098 h -4.28766 v 13.037557 c 0,12.33065 -0.0215,13.028333 -0.39606,12.867433 -0.67773,-0.291118 -4.43675,-0.392586 -5.33684,-0.144061 l -0.85616,0.2364 z"
   id="path411"
   transform="scale(26.458334)" /><path
   style="fill:#808080;stroke-width:0.226319"
   d="m 275.17906,96.015842 c 0.23632,-4.123272 0.57974,-25.980139 0.58548,-37.263545 l 0.005,-10.161843 -3.79084,0.155006 c -3.8121,0.155874 -10.94924,0.718239 -12.10807,0.954043 l -0.62238,0.126645 v -2.168013 -2.168013 h 19.46344 19.46343 v 2.160286 2.160286 l -0.73553,-0.123429 c -1.2681,-0.212797 -8.28794,-0.780086 -11.64282,-0.940881 l -3.21243,-0.153969 -0.1175,0.542305 c -0.78878,3.640352 -0.78671,31.718608 0.003,46.654803 l 0.15265,2.885568 h -3.79823 -3.79824 z"
   id="path413"
   transform="scale(26.458334)" /><path
   style="fill:#808080;stroke-width:0.0400079"
   d="m 21.43611,132.79562 c -1.347355,-3.31955 -1.670945,-4.19333 -1.833258,-4.95029 -0.09784,-0.45629 -0.101312,-0.46132 -0.165482,-0.24004 -0.273992,0.94478 -0.684436,2.07752 -1.84108,5.081 -0.737231,1.91438 -1.353339,3.49437 -1.36913,3.51108 -0.02338,0.0247 -4.884912,-12.46257 -4.884912,-12.54737 0,-0.014 0.499598,-0.0252 1.110219,-0.0248 l 1.11022,7.1e-4 1.138013,3.02653 c 1.084601,2.88448 1.453523,3.9452 1.648106,4.73862 0.04797,0.19559 0.09226,0.35056 0.09843,0.34439 0.01524,-0.0152 0.247624,-0.68602 0.3151,-0.90954 0.161137,-0.53376 2.799118,-7.55925 2.827066,-7.52906 0.01404,0.0152 0.570361,1.45886 1.236267,3.20821 1.155372,3.03518 1.378478,3.66364 1.704363,4.80095 0.07881,0.27505 0.158009,0.5159 0.175988,0.53521 0.01798,0.0193 0.125041,-0.25975 0.237916,-0.62012 0.275438,-0.8794 0.242694,-0.7831 1.484418,-4.36597 l 1.091918,-3.15063 H 26.5362 c 0.63414,0 1.010915,0.0145 1.00259,0.0386 -0.176394,0.50984 -4.660382,12.52276 -4.674259,12.52268 -0.011,-8e-5 -0.653792,-1.56162 -1.428421,-3.47012 z"
   id="path484"
   transform="scale(26.458334)" /><path
   style="fill:#808080;stroke-width:0.0400079"
   d="m 32.226386,129.6857 v -6.0212 h 3.340662 3.340662 v 0.82017 0.82016 h -2.42048 -2.42048 v 1.5203 1.5203 h 2.42048 2.42048 v 0.90018 0.90018 h -2.42048 -2.42048 v 1.92038 1.92038 h 2.42048 2.42048 v 0.86017 0.86017 h -3.340662 -3.340662 z"
   id="path486"
   transform="scale(26.458334)" /><path
   style="fill:#808080;stroke-width:0.0400079"
   d="m 56.082327,132.89613 c -0.863003,-1.85375 -1.679134,-3.65852 -1.813623,-4.01059 -0.13449,-0.35207 -0.264478,-0.68514 -0.288862,-0.74015 -0.03618,-0.0816 -0.05042,0.0141 -0.07739,0.52011 -0.01818,0.34106 -0.05931,0.71914 -0.0914,0.84016 -0.03209,0.12103 -0.378371,1.58372 -0.769512,3.25043 l -0.711166,3.03038 -0.905087,2.2e-4 -0.905087,2.2e-4 0.07225,-0.31006 c 0.362983,-1.55785 2.885592,-12.19319 2.894147,-12.20174 0.0061,-0.006 0.800533,1.69478 1.765313,3.77982 0.964779,2.08505 1.788443,3.83811 1.830364,3.89569 0.05924,0.0814 0.399398,0.99705 0.537009,1.44561 0.03491,0.11381 0.0729,0.0817 0.141911,-0.12002 0.293317,-0.85727 0.496671,-1.3526 0.997822,-2.43048 0.317151,-0.68214 1.133874,-2.45848 1.81494,-3.94742 0.841498,-1.83969 1.2474,-2.68582 1.266696,-2.64053 0.01562,0.0367 0.660232,2.8122 1.432479,6.16787 0.772248,3.35566 1.414144,6.14208 1.426435,6.19203 l 0.02235,0.0908 -0.852257,-0.0108 -0.852258,-0.0108 -0.690774,-2.94059 c -0.379926,-1.61732 -0.69159,-2.95408 -0.692588,-2.97058 -9.96e-4,-0.0165 0.03313,-0.03 0.07584,-0.03 0.118506,0 0.130596,-0.0566 0.06595,-0.30862 -0.03266,-0.12732 -0.08705,-0.39352 -0.120871,-0.59156 -0.03382,-0.19804 -0.08512,-0.46809 -0.113983,-0.60012 l -0.05248,-0.24005 -0.14778,0.42009 c -0.08128,0.23104 -0.224473,0.63843 -0.31821,0.9053 -0.112055,0.31902 -0.710542,1.59003 -1.74729,3.71074 -0.867272,1.77403 -1.587415,3.22542 -1.600317,3.22531 -0.0129,-1.2e-4 -0.729552,-1.51691 -1.592555,-3.37067 z"
   id="path488"
   transform="scale(26.458334)" /><path
   style="fill:#808080;stroke-width:0.0400079"
   d="m 67.965665,135.51685 c 0.05146,-0.10452 1.388528,-2.93093 2.971262,-6.28091 l 2.8777,-6.09088 0.104744,0.22972 c 0.05761,0.12634 1.333533,2.85823 2.835385,6.07087 1.501853,3.21264 2.773253,5.93568 2.825333,6.0512 l 0.09469,0.21004 h -0.974673 -0.974673 l -0.70017,-1.5303 -0.70017,-1.53031 h -2.435197 -2.435197 l -0.699003,1.53031 -0.699002,1.5303 h -1.092297 -1.092296 z m 7.669322,-4.52559 c 0,-0.0718 -1.13437,-2.75074 -1.210723,-2.85925 -0.09517,-0.13526 -0.301334,-0.61781 -0.430143,-1.00682 -0.051,-0.15403 -0.100324,-0.25733 -0.109602,-0.22956 -0.0093,0.0278 -0.04891,0.1988 -0.08807,0.38007 -0.08153,0.37739 -0.216222,0.76039 -0.319404,0.90823 -0.05706,0.0818 -0.76844,1.60691 -1.227645,2.63199 l -0.09409,0.21004 h 1.73984 c 0.956912,0 1.73984,-0.0156 1.73984,-0.0347 z"
   id="path490"
   transform="scale(26.458334)" /><path
   style="fill:#808080;stroke-width:0.0400079"
   d="m 84.196684,129.6857 v -6.0212 h 0.940186 0.940186 v 2.4805 c 0,1.36427 0.0135,2.47924 0.03001,2.4777 0.0165,-0.002 0.981845,-1.11775 2.145204,-2.48049 l 2.115199,-2.47771 h 1.200384 1.200385 l -0.338023,0.37008 c -0.185913,0.20354 -1.26894,1.4032 -2.406726,2.66591 -1.840052,2.04209 -2.062487,2.30299 -2.012476,2.36047 0.17372,0.19967 5.34749,6.6126 5.34749,6.62826 0,0.0103 -0.553504,0.0141 -1.230009,0.008 l -1.230009,-0.0106 -2.366456,-2.99492 c -1.301551,-1.64721 -2.395373,-3.02384 -2.430716,-3.05918 -0.05901,-0.059 -0.06426,0.18658 -0.06426,3.00492 v 3.06918 H 85.11687 84.196688 Z"
   id="path492"
   transform="scale(26.458334)" /><path
   style="fill:#808080;stroke-width:0.0400079"
   d="m 97.959411,129.6857 v -6.0212 h 3.340659 3.34066 v 0.82017 0.82016 h -2.46048 -2.46049 v 1.5203 1.5203 h 2.46049 2.46048 v 0.90018 0.90018 h -2.46048 -2.46049 v 1.92038 1.92038 h 2.46049 2.46048 v 0.86017 0.86017 h -3.34066 -3.340659 z"
   id="path494"
   transform="scale(26.458334)" /><path
   style="fill:#808080;stroke-width:0.0400079"
   d="m 119.88376,132.94404 v -2.76285 l -1.26764,-1.98809 c -0.6972,-1.09345 -1.63338,-2.56109 -2.08041,-3.26143 -0.44703,-0.70034 -0.81278,-1.28126 -0.81278,-1.29093 0,-0.01 0.46261,-0.0128 1.02803,-0.007 l 1.02803,0.0107 1.31139,2.06041 c 1.81428,2.85052 1.88773,2.96251 1.93328,2.94763 0.0222,-0.007 0.0624,-0.0795 0.0895,-0.16068 0.027,-0.0811 0.14406,-0.28418 0.26005,-0.45124 0.116,-0.16706 0.77974,-1.21552 1.47498,-2.32992 l 1.26408,-2.02619 0.96636,-0.0107 c 0.5315,-0.006 0.96637,-5.4e-4 0.96637,0.0119 0,0.0125 -0.91819,1.47548 -2.04041,3.25119 l -2.0404,3.22856 v 2.77072 2.77072 h -1.04021 -1.0402 z"
   id="path496"
   transform="scale(26.458334)" /><path
   style="fill:#808080;stroke-width:0.0400079"
   d="m 135.12678,136.04601 c -0.66327,-0.0825 -1.74698,-0.48689 -2.36897,-0.88388 -0.68787,-0.43904 -1.16504,-0.87901 -1.74618,-1.61008 -0.54688,-0.68796 -1.11945,-1.94423 -1.26072,-2.76613 -0.15762,-0.91694 -0.077,-2.12686 0.19644,-2.94711 0.25607,-0.76827 0.64621,-1.48493 1.14533,-2.10395 0.77935,-0.96656 1.44032,-1.44339 2.67383,-1.92894 1.28419,-0.50549 3.34781,-0.4884 4.57788,0.0379 0.77651,0.33225 1.18971,0.56114 1.52333,0.84383 1.08714,0.92119 1.84579,1.97646 2.21308,3.07835 0.26995,0.80987 0.3296,2.1208 0.14582,3.20512 -0.0785,0.46303 -0.12735,0.61749 -0.36551,1.15504 -0.43278,0.97686 -1.00925,1.72619 -1.95339,2.53913 -0.62072,0.53446 -1.22134,0.86283 -2.18292,1.19344 -0.7043,0.24215 -1.62424,0.30845 -2.59802,0.18726 z m 1.58031,-1.88015 c 0.34462,-0.0715 0.88162,-0.2468 1.10324,-0.36011 0.15974,-0.0817 0.90125,-0.59056 1.14443,-0.7854 0.35622,-0.28541 0.868,-1.04297 1.1041,-1.63432 0.26919,-0.67424 0.32928,-0.98749 0.32617,-1.70033 -0.002,-0.55979 -0.016,-0.68918 -0.10792,-1.03101 -0.26533,-0.9865 -0.8505,-1.96271 -1.45174,-2.42188 -0.82109,-0.62706 -1.67274,-0.98701 -2.55837,-1.0813 -1.30153,-0.13857 -2.95401,0.58202 -3.77497,1.64612 -0.42896,0.55602 -0.78312,1.30586 -0.89167,1.88787 -0.0762,0.4086 -0.0652,1.71344 0.0178,2.11259 0.10909,0.5246 0.40151,1.14232 0.77134,1.62943 0.37668,0.49612 1.09551,1.09727 1.63772,1.36961 0.82146,0.4126 1.8118,0.54886 2.67989,0.36873 z"
   id="path498"
   transform="scale(26.458334)" /><path
   style="fill:#808080;stroke-width:0.0400079"
   d="m 152.29018,136.12406 c -0.055,-0.01 -0.30706,-0.0458 -0.56011,-0.0803 -0.6971,-0.0952 -1.26312,-0.29038 -1.70034,-0.58648 -0.19804,-0.13412 -0.45751,-0.32574 -0.5766,-0.42583 -0.46674,-0.39226 -1.09149,-1.40862 -1.22198,-1.98793 -0.0343,-0.15246 -0.10117,-0.52924 -0.14852,-0.8373 -0.0829,-0.53911 -0.0867,-0.70977 -0.10198,-4.5509 l -0.0159,-3.9908 h 0.96067 0.96067 l 0.0158,3.97079 c 0.0151,3.78755 0.0195,3.98925 0.0965,4.37087 0.0953,0.47265 0.2295,0.7799 0.50433,1.15465 0.46662,0.63625 1.03221,0.94683 1.93889,1.06467 0.60783,0.079 1.49947,-0.0624 2.01004,-0.31876 0.68251,-0.34269 1.18865,-1.11934 1.34287,-2.06059 0.0652,-0.39776 0.0734,-0.81243 0.0859,-4.31086 l 0.0138,-3.87077 h 0.93851 0.93851 l -8e-5,3.81076 c -4e-5,2.17624 -0.0173,4.03686 -0.0403,4.33791 -0.041,0.53693 -0.21536,1.40258 -0.3492,1.73329 -0.29011,0.71684 -0.83005,1.3758 -1.49905,1.82947 -0.50209,0.34049 -1.0488,0.53729 -1.82217,0.65592 -0.48358,0.0742 -1.55467,0.12997 -1.77026,0.0922 z"
   id="path500"
   transform="scale(26.458334)" /><path
   style="fill:#808080;stroke-width:0.0400079"
   d="m 163.89248,129.72244 v -6.02445 l 1.97039,0.0178 c 1.81518,0.0164 2.00171,0.0245 2.36804,0.10254 0.44913,0.0957 0.81831,0.20951 1.14592,0.35322 0.17341,0.0761 0.27705,0.16224 0.46371,0.38557 0.66098,0.79084 0.90251,1.42282 0.905,2.36803 0.003,1.10569 -0.29526,1.85932 -0.98289,2.48417 -0.36561,0.33222 -1.11787,0.6611 -1.64161,0.71769 -0.16876,0.0182 -0.22246,0.0379 -0.19628,0.0719 0.44171,0.57421 4.12306,5.42256 4.14418,5.45792 0.0236,0.0395 -0.2037,0.05 -1.08438,0.05 h -1.11426 l -1.94159,-2.75054 -1.94159,-2.75055 -0.18715,-0.0122 -0.18715,-0.0122 v 2.78275 2.78274 h -0.86017 -0.86017 z m 3.44068,-1.09333 c 0.73229,-0.12155 1.01184,-0.27501 1.20103,-0.65931 0.15506,-0.31497 0.21317,-0.67282 0.18261,-1.12467 -0.0369,-0.54489 -0.16911,-0.8992 -0.42288,-1.13281 -0.29942,-0.27564 -1.06394,-0.44747 -1.99097,-0.44749 l -0.5301,-1e-5 v 1.72034 1.72034 l 0.55011,-1e-5 c 0.35396,0 0.71416,-0.0272 1.0102,-0.0764 z"
   id="path502"
   transform="scale(26.458334)" /><path
   style="fill:#808080;stroke-width:0.0400079"
   d="m 193.52316,136.14312 c -0.0309,-0.0749 -0.65088,-1.63947 -1.37766,-3.47683 -1.23781,-3.12929 -1.65839,-4.29277 -1.81185,-5.01229 -0.0271,-0.12724 -0.0622,-0.21726 -0.0779,-0.20004 -0.0157,0.0172 -0.0842,0.22034 -0.15231,0.45138 -0.0681,0.23105 -0.205,0.66314 -0.30423,0.9602 -0.20447,0.61209 -2.79143,7.35883 -2.82221,7.36029 -0.0181,8.5e-4 -4.76357,-12.41915 -4.79388,-12.54685 -0.0107,-0.045 0.17803,-0.0544 1.08021,-0.0542 l 1.09315,2.6e-4 1.15629,3.11036 c 1.37032,3.68611 1.29187,3.46624 1.52384,4.27058 0.24048,0.83388 0.21679,0.7706 0.26169,0.69902 0.0203,-0.0324 0.0665,-0.19392 0.10253,-0.35895 0.0876,-0.40063 0.30286,-1.0688 0.5414,-1.68034 0.10729,-0.27505 0.69684,-1.82989 1.31011,-3.45519 0.61327,-1.6253 1.12449,-2.93956 1.13605,-2.92058 0.0115,0.019 0.57941,1.50181 1.2619,3.29516 1.1159,2.93223 1.44808,3.87368 1.72925,4.90097 0.0482,0.17604 0.0976,0.33675 0.10989,0.35713 0.0123,0.0204 0.0526,-0.0696 0.0896,-0.20004 0.25495,-0.89886 0.61192,-1.98318 1.56954,-4.76759 l 1.09032,-3.17022 1.0102,-4.1e-4 c 0.55561,-2.2e-4 1.0102,0.009 1.0102,0.0207 0,0.0297 -4.64642,12.51776 -4.66482,12.53749 -0.008,0.009 -0.0404,-0.0451 -0.0713,-0.12002 z"
   id="path504"
   transform="scale(26.458334)" /><path
   style="fill:#808080;stroke-width:0.0400079"
   d="m 208.04122,136.04637 c -0.76844,-0.0992 -1.78651,-0.50811 -2.54535,-1.02244 -0.43787,-0.29677 -1.2378,-1.0741 -1.56163,-1.51748 -0.65842,-0.90151 -1.06484,-1.85611 -1.21777,-2.86032 -0.0662,-0.43479 -0.0725,-1.32256 -0.0127,-1.78424 0.0827,-0.63836 0.31548,-1.43432 0.56635,-1.93674 0.37259,-0.74622 1.26023,-1.83587 1.87958,-2.30733 0.29723,-0.22627 0.98238,-0.58421 1.63128,-0.85223 0.58255,-0.24061 1.87076,-0.38394 2.75064,-0.30604 1.06721,0.0945 1.47034,0.21301 2.52147,0.74137 0.84542,0.42496 1.44438,0.98607 2.13926,2.00409 0.67898,0.99471 0.91802,1.6874 1.0348,2.99866 0.0687,0.77143 -0.0485,1.89457 -0.25277,2.42241 -0.6084,1.572 -1.42714,2.63092 -2.69133,3.48083 -0.62127,0.41768 -1.74416,0.85492 -2.42146,0.94289 -0.51528,0.0669 -1.28633,0.0655 -1.82036,-0.003 z m 1.72034,-1.91674 c 0.68321,-0.1662 1.09829,-0.36173 1.65119,-0.77783 0.8024,-0.60388 1.31507,-1.32348 1.64276,-2.30583 0.21515,-0.645 0.27764,-1.3915 0.16913,-2.0204 -0.0728,-0.42173 -0.29038,-1.06636 -0.48858,-1.44734 -0.20392,-0.39196 -0.66701,-1.04492 -0.86768,-1.22343 -0.27129,-0.24135 -0.88234,-0.65134 -1.14918,-0.77106 -0.32947,-0.14782 -0.95364,-0.34056 -1.2977,-0.40071 -0.96788,-0.16921 -2.1096,0.12226 -3.11772,0.79594 -0.4388,0.29322 -0.75928,0.61299 -1.10891,1.10643 -0.46424,0.6552 -0.57477,0.93931 -0.73917,1.90016 -0.13524,0.79038 0.0111,1.96128 0.33508,2.68053 0.13684,0.30381 0.64331,0.96796 0.97649,1.28048 0.3605,0.33816 1.03775,0.79252 1.41605,0.95 0.88358,0.36784 1.7152,0.44301 2.57824,0.23306 z"
   id="path506"
   transform="scale(26.458334)" /><path
   style="fill:#808080;stroke-width:0.0400079"
   d="m 220.94378,129.72237 v -6.02454 l 1.91038,0.0169 c 1.76275,0.0156 1.94281,0.0235 2.3301,0.10331 0.85384,0.17586 1.26561,0.36158 1.62618,0.73348 0.26897,0.27742 0.54303,0.68957 0.6546,0.98442 0.0393,0.10396 0.1123,0.38705 0.16215,0.6291 0.21131,1.02621 0.0517,2.03303 -0.44398,2.80055 -0.36112,0.55917 -1.1586,1.0455 -1.87834,1.14545 -0.16516,0.0229 -0.30661,0.048 -0.31435,0.0557 -0.0114,0.0113 2.57711,3.42896 3.88558,5.13016 l 0.31541,0.41008 -1.13327,-0.002 -1.13327,-0.002 -1.97901,-2.76 -1.97901,-2.76001 -0.16142,0.0119 -0.16141,0.0119 -0.0103,2.77055 -0.0103,2.77055 h -0.8399 -0.83989 z m 3.32066,-1.09274 c 0.79239,-0.13064 1.10084,-0.30464 1.31647,-0.74266 0.15977,-0.32452 0.20749,-0.66149 0.16245,-1.14706 -0.065,-0.70038 -0.33964,-1.10328 -0.86509,-1.26891 -0.40238,-0.12683 -1.02344,-0.20618 -1.61377,-0.20618 h -0.52036 v 1.72034 1.72034 l 0.5301,-1e-5 c 0.33192,0 0.70212,-0.0284 0.9902,-0.0759 z"
   id="path508"
   transform="scale(26.458334)" /><path
   style="fill:#808080;stroke-width:0.0400079"
   d="m 233.70631,129.6857 v -6.0212 h 0.94019 0.94018 v 2.48383 c 0,1.45317 0.0149,2.47829 0.036,2.47049 0.0198,-0.007 0.98687,-1.12506 2.14909,-2.48383 l 2.11311,-2.47049 h 1.19907 1.19906 l -0.10279,0.11003 c -0.86595,0.92694 -4.67285,5.20012 -4.6645,5.23582 0.006,0.0267 0.71545,0.91877 1.57598,1.9823 0.86053,1.06353 2.07082,2.55931 2.68954,3.32397 l 1.12494,1.39027 h -1.23673 -1.23673 l -2.413,-3.05864 c -1.32715,-1.68225 -2.42651,-3.05953 -2.44301,-3.06061 -0.0165,-0.001 -0.03,1.37531 -0.03,3.05864 v 3.06061 h -0.92018 -0.92018 z"
   id="path510"
   transform="scale(26.458334)" /><path
   style="fill:#808080;stroke-width:0.0400079"
   d="m 254.51043,129.6857 v -6.0212 h 3.34066 3.34067 v 0.82017 0.82016 h -2.42048 -2.42048 v 1.5203 1.5203 h 2.42048 2.42048 v 0.90018 0.90018 h -2.42048 -2.42048 v 1.92038 1.92038 h 2.42048 2.42048 v 0.86017 0.86017 h -3.34067 -3.34066 z"
   id="path512"
   transform="scale(26.458334)" /><path
   style="fill:#808080;stroke-width:0.0400079"
   d="m 265.13036,135.63755 c 0.0731,-0.19208 5.88578,-12.45295 5.90317,-12.45175 0.0176,0.001 5.78935,12.34514 5.83172,12.47225 0.0125,0.0376 -0.21249,0.0486 -0.97725,0.0478 l -0.99353,-0.001 -0.69944,-1.53954 -0.69944,-1.53954 -2.4319,0.0103 -2.43191,0.0103 -0.7129,1.52031 -0.71291,1.5203 -1.05126,0.0107 c -0.99093,0.0101 -1.04971,0.007 -1.02435,-0.06 z m 7.70376,-4.71146 c -0.21735,-0.57166 -1.12181,-2.68174 -1.20818,-2.81865 -0.10891,-0.17264 -0.39802,-0.86901 -0.45363,-1.09265 -0.0492,-0.19777 -0.087,-0.15331 -0.13742,0.16135 -0.0272,0.17002 -0.0926,0.41575 -0.14537,0.54606 -0.0527,0.13032 -0.0959,0.25223 -0.0959,0.27092 0,0.0187 -0.0433,0.10109 -0.0962,0.18314 -0.0915,0.14184 -1.30405,2.76668 -1.30405,2.82291 0,0.0147 0.78271,0.0268 1.73936,0.0268 h 1.73935 z"
   id="path514"
   transform="scale(26.458334)" /><path
   style="fill:#808080;stroke-width:0.0400079"
   d="m 284.01628,136.11932 c -0.42157,-0.0374 -1.01431,-0.19153 -1.32026,-0.34328 -0.56952,-0.28245 -0.91098,-0.56427 -1.30316,-1.07551 -0.27383,-0.35698 -0.70934,-1.17802 -0.65409,-1.23313 0.0558,-0.0556 1.5839,-0.7277 1.6055,-0.70611 0.0103,0.0103 0.0362,0.0967 0.0575,0.19194 0.0879,0.39302 0.57275,1.03671 0.91362,1.21298 0.15519,0.0803 0.53743,0.17101 0.91991,0.21841 0.47877,0.0593 0.94412,-0.001 1.27279,-0.16569 0.29114,-0.14568 0.70832,-0.56123 0.83954,-0.83627 0.1679,-0.35191 0.19336,-1.08931 0.0503,-1.45652 -0.0795,-0.20392 -0.34755,-0.52488 -0.60196,-0.72064 -0.13361,-0.10281 -0.47168,-0.29529 -0.75126,-0.42773 -1.77929,-0.84284 -3.14578,-1.84841 -3.57721,-2.63238 -0.248,-0.45065 -0.3291,-0.81348 -0.32639,-1.46029 0.002,-0.48553 0.0165,-0.60805 0.10889,-0.92018 0.35189,-1.18911 1.15852,-1.93514 2.34896,-2.17248 1.69885,-0.3387 3.27743,0.0705 4.08962,1.06003 0.21392,0.26065 0.48969,0.68951 0.4586,0.71321 -0.0594,0.0453 -1.46859,0.77932 -1.4961,0.77932 -0.0204,0 -0.0664,-0.0495 -0.10226,-0.11003 -0.0359,-0.0605 -0.20095,-0.25597 -0.36685,-0.43436 -0.3347,-0.3599 -0.51961,-0.46394 -0.94808,-0.53346 -0.6008,-0.0975 -1.09013,-0.0288 -1.46339,0.2053 -0.53598,0.33621 -0.71612,0.6732 -0.71237,1.33264 0.002,0.31168 0.0175,0.39233 0.11698,0.60012 0.13674,0.28558 0.5248,0.68785 0.90117,0.93418 0.27736,0.18153 1.29529,0.69861 2.0204,1.02631 0.80692,0.36468 1.3934,0.81163 1.78473,1.36016 0.35566,0.49853 0.44754,0.75005 0.55256,1.51261 0.11638,0.84506 -0.2245,1.99111 -0.81149,2.72823 -0.77379,0.97172 -2.13702,1.48304 -3.60621,1.35262 z"
   id="path516"
   transform="scale(26.458334)" /><path
   style="fill:#808080;stroke-width:0.0400079"
   d="m 293.95825,129.6857 v -6.0212 h 0.94019 0.94018 v 6.0212 6.02119 h -0.94018 -0.94019 z"
   id="path518"
   transform="scale(26.458334)" /><path
   style="fill:#808080;stroke-width:0.0400079"
   d="m 302.15987,129.6857 v -6.0212 h 3.34067 3.34066 v 0.82017 0.82016 h -2.42048 -2.42048 v 1.5203 1.5203 h 2.42048 2.42048 v 0.90018 0.90018 h -2.42048 -2.42048 v 1.92038 1.92038 h 2.42048 2.42048 v 0.86017 0.86017 h -3.34066 -3.34067 z"
   id="path520"
   transform="scale(26.458334)" /><path
   style="fill:#808080;stroke-width:0.0400079"
   d="m 314.48232,129.72242 v -6.02448 l 1.95038,0.0167 c 1.80484,0.0155 1.98171,0.0232 2.37011,0.10325 1.14321,0.23564 1.50952,0.47181 2.02699,1.30686 0.32171,0.51917 0.39197,0.73759 0.49543,1.54031 0.0327,0.25371 -0.0185,0.83743 -0.11827,1.34881 -0.0826,0.4235 -0.49028,1.07098 -0.89218,1.41711 -0.36201,0.31176 -1.03104,0.61263 -1.51161,0.67976 -0.16503,0.0231 -0.30541,0.0472 -0.31194,0.0537 -0.007,0.006 0.93294,1.25166 2.08774,2.76709 l 2.09962,2.75533 -1.10754,0.011 c -1.032,0.0103 -1.11164,0.006 -1.16756,-0.0621 -0.033,-0.0402 -0.91375,-1.28295 -1.95721,-2.76159 l -1.89719,-2.68843 h -0.17322 -0.17321 v 2.78055 2.78055 h -0.86017 -0.86017 z m 3.32065,-1.07721 c 1.11337,-0.17569 1.4527,-0.55034 1.4526,-1.6038 -9e-5,-0.90393 -0.27829,-1.39734 -0.89556,-1.58838 -0.3472,-0.10745 -0.99812,-0.18821 -1.51696,-0.18821 h -0.48036 v 1.72034 1.72034 l 0.5301,-1.6e-4 c 0.29156,-8e-5 0.70114,-0.0272 0.91018,-0.0601 z"
   id="path522"
   transform="scale(26.458334)" /><path
   style="fill:#ffffff;stroke-width:0.320063"
   d="m 275.21978,97.532072 c 0.16749,-0.892801 0.81396,-36.787229 0.82966,-46.066297 l 0.005,-3.105038 -2.80055,0.159304 c -5.26792,0.299655 -11.76159,0.796011 -12.80254,0.978586 l -1.04021,0.182444 V 47.72507 45.769069 h 19.36384 19.36384 v 1.956001 1.956001 l -1.04021,-0.179047 c -0.57211,-0.09848 -3.27265,-0.331825 -6.00119,-0.518553 -2.72854,-0.186728 -5.78315,-0.407408 -6.78802,-0.4904 l -1.82705,-0.150895 -0.25337,1.193938 c -0.32468,1.530006 -0.33194,38.456634 -0.009,44.482516 l 0.24463,4.560904 h -3.72093 -3.72093 z"
   id="path524"
   transform="scale(26.458334)" /><path
   style="fill:#ffffff;stroke-width:0.320063"
   d="M 225.32465,72.01427 V 45.929101 h 13.50724 13.50724 l -0.007,2.197744 -0.007,2.197744 -1.33782,-0.219099 c -1.7983,-0.29451 -11.70831,-0.794484 -15.98074,-0.806249 l -3.44068,-0.0095 v 9.970698 9.970698 l 8.88176,-0.196784 c 4.88496,-0.108232 9.20582,-0.290988 9.6019,-0.406125 0.69967,-0.20339 0.72014,-0.143622 0.72014,2.102676 0,2.069374 -0.0587,2.289486 -0.55944,2.097338 -0.3077,-0.118073 -4.62855,-0.300237 -9.60191,-0.404807 l -9.04245,-0.190129 -0.0319,12.292927 c -0.0175,6.76111 -0.12557,12.580983 -0.24005,12.933053 -0.18771,0.577292 -0.4909,0.640127 -3.08871,0.640127 h -2.88057 z"
   id="path526"
   transform="scale(26.458334)" /><path
   style="fill:#ffffff;stroke-width:0.320063"
   d="m 174.1145,111.78739 c -2.53262,-0.0798 -3.28413,-0.21219 -3.60071,-0.63432 -0.47521,-0.63366 -0.49638,-1.04307 -0.0875,-1.69138 0.24463,-0.38785 1.42229,-0.51084 6.12893,-0.64013 l 5.8261,-0.16003 1.49578,-5.76114 1.49577,-5.761142 4.29276,-0.02538 c 4.79232,-0.02832 7.24248,-0.511823 10.37397,-2.047065 4.70431,-2.306332 8.18546,-7.089859 9.92606,-13.63964 0.66425,-2.499542 1.08344,-10.273866 0.7604,-14.102499 -0.74174,-8.791113 -4.28448,-15.032479 -10.21873,-18.002662 -1.34804,-0.674716 -2.62329,-1.284192 -2.83389,-1.354391 -0.2725,-0.09084 -0.003,-1.55658 0.93519,-5.083865 1.5415,-5.796274 1.85638,-6.556547 2.71553,-6.556547 0.96851,0 0.9412,1.394947 -0.11117,5.678672 l -0.9233,3.75829 3.23562,1.588091 c 5.5779,2.737716 9.22955,6.375703 11.7434,11.69945 2.09685,4.440649 2.64998,7.206376 2.65644,13.282632 0.005,4.473664 -0.1025,5.672503 -0.70158,7.841554 -2.74552,9.94044 -9.91296,16.935321 -19.67231,19.198665 -1.14095,0.264603 -3.97845,0.6161 -6.30556,0.781107 -2.32711,0.165 -4.26741,0.34597 -4.31178,0.40214 -0.0444,0.0562 -0.4684,1.68646 -0.94229,3.62284 -0.4739,1.93639 -0.93735,3.77275 -1.0299,4.08081 -0.15719,0.52321 0.37013,0.56011 8.00364,0.56011 8.00639,0 8.17931,0.0138 8.53618,0.68061 0.25273,0.47223 0.26555,0.89725 0.0419,1.38816 -0.31702,0.69577 -0.46268,0.71106 -8.75466,0.91905 -8.08642,0.20283 -11.67239,0.19861 -18.67431,-0.022 z"
   id="path528"
   transform="scale(26.458334)" /><path
   style="fill:#ffffff;stroke-width:0.320063"
   d="m 127.2011,99.722525 c -2.69599,-0.566035 -6.73616,-1.968368 -7.02707,-2.439082 -0.12355,-0.199895 -0.0409,-1.322316 0.18357,-2.494267 1.45116,-7.575155 1.90447,-9.652306 2.10649,-9.652306 0.12542,0 0.54206,0.943633 0.92587,2.096966 1.78079,5.351271 6.11628,8.093969 12.24233,7.744677 3.71615,-0.211888 5.98921,-1.28966 7.51608,-3.563762 0.95605,-1.423937 1.0402,-1.754777 1.0402,-4.089502 0,-1.606171 -0.17259,-2.87398 -0.46936,-3.44788 -0.85276,-1.64905 -3.23564,-3.365527 -8.21563,-5.918008 -7.12208,-3.6504 -8.98966,-4.78824 -11.1655,-6.80269 -3.13455,-2.902035 -4.46263,-5.841109 -4.47053,-9.893343 -0.005,-2.392677 1.01243,-6.505953 2.04376,-8.265252 1.05418,-1.798275 4.21944,-4.74755 6.1394,-5.720467 3.64217,-1.845629 5.95677,-2.309197 11.49694,-2.302604 5.65746,0.0067 7.60743,0.369003 11.41023,2.119822 l 2.12839,0.979916 -0.72532,1.647718 c -0.39894,0.906245 -1.13435,2.907968 -1.63426,4.448273 -0.4999,1.540305 -1.00951,2.800555 -1.13246,2.800555 -0.12295,0 -0.65036,-0.75629 -1.17204,-1.680645 -1.168,-2.069589 -3.47902,-4.244338 -5.42504,-5.105157 -1.12227,-0.496432 -2.1885,-0.653454 -4.56875,-0.672833 -2.7674,-0.02253 -3.3006,0.07049 -4.90586,0.855869 -0.99055,0.484632 -2.0705,1.268334 -2.39989,1.741561 -1.46959,2.111312 -1.74609,5.094149 -0.67694,7.302727 0.83865,1.732411 2.16751,2.60418 10.4695,6.86829 7.79439,4.003397 10.2038,5.684823 11.89451,8.300685 1.52137,2.353859 2.08238,4.497538 2.05033,7.834545 -0.0819,8.528339 -5.06854,14.507761 -14.03214,16.825862 -3.33705,0.863007 -10.58699,1.118557 -13.62681,0.480332 z"
   id="path530"
   transform="scale(26.458334)" /><path
   style="fill:#ffffff;stroke-width:0.320063"
   d="m 95.975445,96.542801 c 1.274242,-12.678036 1.280016,-39.463303 0.0106,-49.173415 l -0.18829,-1.440285 h 7.081155 7.08116 l -0.24919,3.200634 c -0.3151,4.047198 -0.30802,45.204506 0.008,47.413949 l 0.23539,1.644883 -5.36739,-0.161405 c -3.00282,-0.0903 -6.125472,-0.0202 -7.088191,0.159148 l -1.720809,0.32055 0.197403,-1.964059 z"
   id="path532"
   transform="scale(26.458334)" /><path
   style="fill:#f2f2f2;stroke-width:0.320063"
   d="M 56.17113,99.713134 C 45.982958,97.522806 38.97486,90.979724 36.273803,81.136077 c -0.605097,-2.205195 -0.703014,-3.382164 -0.705627,-8.48168 -0.0028,-5.551161 0.05194,-6.10118 0.876616,-8.801744 3.053891,-10.000518 10.176493,-16.042196 21.726691,-18.429453 2.849913,-0.589036 4.016164,-0.65728 8.881804,-0.519727 6.089309,0.172146 8.927359,0.723878 14.242822,2.768879 3.827238,1.472442 3.62798,1.040562 2.319496,5.027313 -0.626649,1.909306 -1.243808,3.973745 -1.371465,4.587642 l -0.232107,1.116176 -0.838057,-1.116176 c -1.570369,-2.091515 -3.951327,-4.456742 -5.462631,-5.426543 -4.67091,-2.997316 -11.570101,-3.358162 -16.659644,-0.871345 -2.597485,1.269165 -5.862487,4.466075 -7.26215,7.110697 -2.359662,4.45851 -3.534026,11.541902 -2.947321,17.777312 0.98847,10.505327 6.440594,17.257584 14.724735,18.236043 2.751101,0.324941 5.879311,0.174976 8.094592,-0.388048 l 1.2476,-0.317087 -0.170939,-9.336762 -0.170939,-9.336765 h 6.467291 6.467291 l -0.02247,8.961776 c -0.01235,4.928976 0.04131,9.822631 0.119256,10.874785 l 0.141721,1.913009 -3.975137,1.040911 c -6.790168,1.778042 -11.052145,2.387977 -17.592519,2.51768 -4.2559,0.0844 -6.50627,-0.008 -8.001586,-0.329836 z"
   id="path534"
   transform="scale(26.458334)" /><path
   style="fill:#f2f2f2;stroke-width:0.0800159"
   d="m 22.728078,135.82654 c -0.350629,-0.8303 -2.155642,-5.30371 -2.469749,-6.12084 -0.323336,-0.84113 -0.513876,-1.43588 -0.647281,-2.0204 -0.07596,-0.33281 -0.163213,-0.26755 -0.320968,0.24005 -0.483217,1.55481 -3.011055,8.13141 -3.09178,8.04379 -0.05284,-0.0574 -1.94191,-4.87547 -3.945935,-10.06419 l -0.834416,-2.16043 0.492254,-0.0507 c 0.27074,-0.0279 0.744305,-0.0544 1.052366,-0.0589 l 0.560111,-0.008 0.753272,2.01928 c 1.365163,3.65957 1.692251,4.57161 1.90073,5.29994 0.113376,0.39608 0.224457,0.75135 0.246847,0.78948 0.02239,0.0381 0.283689,-0.60998 0.580663,-1.44028 0.437367,-1.22282 2.082616,-5.62137 2.480144,-6.63065 l 0.09455,-0.24004 0.161571,0.40008 c 0.645967,1.59952 2.080468,5.44542 2.462253,6.6013 0.254379,0.77016 0.49295,1.39398 0.530158,1.38628 0.03721,-0.008 0.154314,-0.27776 0.260237,-0.60012 0.235811,-0.71766 2.455098,-7.17244 2.533085,-7.36746 0.04541,-0.11355 0.148958,-0.13839 0.547536,-0.13134 0.270345,0.005 0.693625,0.0318 0.940621,0.06 l 0.449084,0.0513 -0.268798,0.72014 c -0.147839,0.39608 -1.182919,3.16846 -2.300176,6.16085 l -2.031377,5.44071 z"
   id="path605"
   transform="scale(26.458334)" /><path
   style="fill:#f2f2f2;stroke-width:0.0800159"
   d="m 32.286398,129.7057 v -6.00119 h 3.28065 3.28065 v 0.80016 0.80016 h -2.400476 -2.400476 v 1.5203 1.5203 h 2.400476 2.400476 v 0.88018 0.88017 h -2.400476 -2.400476 v 1.96039 1.96039 h 2.400476 2.400476 v 0.84016 0.84017 h -3.28065 -3.28065 z"
   id="path607"
   transform="scale(26.458334)" /><path
   style="fill:#f2f2f2;stroke-width:0.0800159"
   d="m 57.209674,135.18679 c -1.414795,-2.97914 -2.970189,-6.42515 -3.115001,-6.90137 -0.101292,-0.3331 -0.181575,-0.18393 -0.236862,0.44009 -0.04494,0.50722 -0.394163,2.07997 -1.527984,6.88136 -0.04075,0.17255 -0.07739,0.18004 -0.881156,0.18004 -0.62735,0 -0.838642,-0.0258 -0.838642,-0.10226 0,-0.13692 2.786678,-11.90119 2.861747,-12.08119 0.04202,-0.10075 0.592899,1.00535 1.927923,3.87106 1.028001,2.20667 1.94233,4.23253 2.031842,4.50192 0.08951,0.2694 0.175606,0.50481 0.191317,0.52315 0.05651,0.0659 0.123305,-0.0685 0.388572,-0.78196 0.318191,-0.85585 3.715088,-8.25334 3.789636,-8.25277 0.04109,3.1e-4 2.897097,12.18465 2.86176,12.20889 -0.0055,0.004 -0.372316,-0.009 -0.81513,-0.0287 l -0.805114,-0.0356 -0.681343,-2.91188 c -0.374739,-1.60153 -0.651565,-2.91187 -0.615167,-2.91187 0.0364,0 0.06618,-0.0862 0.06618,-0.19148 0,-0.1947 -0.214911,-1.34995 -0.291858,-1.56887 -0.0232,-0.066 -0.176744,0.25805 -0.341206,0.72014 -0.311875,0.87628 -1.337622,3.07278 -2.709086,5.80115 l -0.804429,1.60032 z"
   id="path609"
   transform="scale(26.458334)" /><path
   style="fill:#f2f2f2;stroke-width:0.0800159"
   d="m 68.008901,135.56686 c 0.134095,-0.35729 5.7705,-12.25668 5.805726,-12.25685 0.03563,-1.7e-4 5.601416,11.91106 5.72729,12.25685 0.04664,0.12814 -0.02628,0.14003 -0.858823,0.14003 h -0.909797 l -0.710876,-1.56031 -0.710878,-1.56031 h -2.458369 -2.458369 l -0.710466,1.55914 -0.710466,1.55914 -1.028763,10e-4 c -0.946714,0.001 -1.024571,-0.01 -0.976209,-0.13886 z m 7.64609,-4.58416 c 0,-0.11413 -0.652769,-1.69495 -1.122048,-2.71728 -0.212112,-0.4621 -0.446938,-0.9842 -0.521834,-1.16023 l -0.136174,-0.32007 -0.141397,0.52011 c -0.07777,0.28605 -0.447793,1.17348 -0.822278,1.97206 -0.374486,0.79859 -0.704928,1.52773 -0.734317,1.62033 -0.05321,0.16765 -0.04612,0.16835 1.712307,0.16835 1.169812,0 1.765741,-0.0281 1.765741,-0.0833 z"
   id="path611"
   transform="scale(26.458334)" /><path
   style="fill:#f2f2f2;stroke-width:0.0800159"
   d="m 84.216688,129.7057 v -6.00119 h 0.920182 0.920182 v 2.49029 c 0,2.30761 0.0097,2.48223 0.132354,2.38047 0.07279,-0.0604 1.050125,-1.18103 2.171847,-2.49029 l 2.039495,-2.38047 h 1.12275 1.12275 l -0.160547,0.18004 c -0.0883,0.099 -0.968142,1.08021 -1.955201,2.18043 -2.232405,2.48833 -2.553067,2.85909 -2.553067,2.95193 0,0.0408 0.366532,0.52748 0.814515,1.08159 2.985176,3.69238 4.386516,5.4441 4.386516,5.48327 0,0.0248 -0.513102,0.0434 -1.140226,0.0413 l -1.140226,-0.004 -2.360468,-2.99403 c -1.298257,-1.64671 -2.383274,-2.99525 -2.411147,-2.99674 -0.122649,-0.007 -0.14724,0.52712 -0.148268,3.21791 l -0.0011,2.86057 H 85.096854 84.21668 Z"
   id="path613"
   transform="scale(26.458334)" /><path
   style="fill:#f2f2f2;stroke-width:0.0800159"
   d="m 97.979415,129.7057 v -6.00119 h 3.320655 3.32066 v 0.80016 0.80016 h -2.48049 -2.480492 v 1.5203 1.5203 h 2.480492 2.48049 v 0.88018 0.88017 h -2.48049 -2.480492 v 1.96039 1.96039 h 2.480492 2.48049 v 0.84016 0.84017 h -3.32066 -3.320655 z"
   id="path615"
   transform="scale(26.458334)" /><path
   style="fill:#f2f2f2;stroke-width:0.0800159"
   d="m 119.90376,132.91327 v -2.79361 l -2.0334,-3.18757 -2.0334,-3.18757 0.97232,-0.0226 c 0.53477,-0.0124 0.98252,0.006 0.99499,0.04 0.0686,0.1894 3.11272,4.85658 3.1797,4.87501 0.044,0.0121 0.77617,-1.09272 1.62701,-2.45519 l 1.54699,-2.47722 h 0.9125 0.91251 l -0.26604,0.42009 c -0.14633,0.23104 -1.06406,1.68634 -2.03941,3.23399 l -1.77337,2.81391 v 2.7672 2.76719 h -1.0002 -1.0002 z"
   id="path617"
   transform="scale(26.458334)" /><path
   style="fill:#f2f2f2;stroke-width:0.0800159"
   d="m 134.64247,135.90223 c -1.90099,-0.51164 -3.40805,-1.7549 -4.25964,-3.51402 -0.56172,-1.16034 -0.66082,-1.62324 -0.61713,-2.88255 0.0291,-0.83973 0.0766,-1.16357 0.2461,-1.68033 0.31525,-0.96092 0.85487,-1.81388 1.65179,-2.6109 0.5775,-0.57757 0.81413,-0.75055 1.44668,-1.0575 1.05125,-0.51013 1.65182,-0.64294 2.91668,-0.64498 1.2367,-0.002 1.73881,0.11116 2.84057,0.64016 0.66395,0.31879 0.85698,0.46292 1.52533,1.13893 1.16703,1.18039 1.65614,2.11383 1.84287,3.51708 0.0953,0.71633 0.0504,1.77263 -0.10276,2.41788 -0.13291,0.55984 -0.64229,1.58977 -1.05663,2.13644 -0.96302,1.27059 -2.27491,2.17278 -3.6988,2.54365 -0.5932,0.15451 -2.15482,0.1523 -2.73506,-0.004 z m 2.70204,-1.86929 c 1.0363,-0.36006 2.07455,-1.2683 2.56407,-2.24298 0.37872,-0.75406 0.47928,-1.19062 0.47837,-2.07678 -0.001,-1.15516 -0.27721,-1.99006 -0.95709,-2.8949 -0.536,-0.71335 -1.567,-1.35609 -2.56274,-1.59765 -1.85775,-0.45067 -3.96226,0.53953 -4.85562,2.28464 -0.3963,0.77414 -0.50544,1.25516 -0.50544,2.22757 0,1.32949 0.38955,2.29373 1.28209,3.1735 1.01638,1.00183 1.94628,1.3799 3.27881,1.33308 0.52362,-0.0184 0.92115,-0.0827 1.27755,-0.20648 z"
   id="path619"
   transform="scale(26.458334)" /><path
   style="fill:#f2f2f2;stroke-width:0.0800159"
   d="m 151.63005,135.98982 c -0.81435,-0.16062 -1.19633,-0.31756 -1.77098,-0.72762 -0.87625,-0.62528 -1.44908,-1.54612 -1.66835,-2.68196 -0.10492,-0.54343 -0.13948,-1.469 -0.17831,-4.77492 l -0.0482,-4.10081 h 0.93272 0.93272 l 0.007,2.46049 c 0.0102,3.84745 0.0987,5.99838 0.26247,6.37766 0.2766,0.64067 0.73201,1.1345 1.30763,1.41794 0.51292,0.25256 0.58478,0.266 1.42218,0.266 0.65782,0 0.99221,-0.0384 1.31575,-0.15101 0.53165,-0.18508 1.07231,-0.6675 1.3399,-1.19556 0.39399,-0.7775 0.42387,-1.15084 0.42537,-5.31475 l 0.001,-3.86077 h 0.92916 0.92915 l -0.0406,4.22084 c -0.0441,4.58725 -0.0748,4.93621 -0.51553,5.86116 -0.25004,0.5248 -1.18785,1.49874 -1.68871,1.75378 -0.88252,0.44938 -2.78288,0.66875 -3.89429,0.44953 z"
   id="path621"
   transform="scale(26.458334)" /><path
   style="fill:#f2f2f2;stroke-width:0.0800159"
   d="m 163.91248,129.7094 v -5.99749 l 1.66033,0.038 c 2.29307,0.0524 2.62237,0.0803 3.2457,0.27446 0.63426,0.19757 1.01741,0.50936 1.39224,1.1329 0.74053,1.23191 0.62846,2.98652 -0.2534,3.96736 -0.3865,0.42989 -0.9877,0.76784 -1.62399,0.9129 -0.23105,0.0527 -0.4176,0.13459 -0.41455,0.18204 0.003,0.0475 0.91436,1.27452 2.02514,2.7268 l 2.0196,2.64053 -0.44482,0.0513 c -0.24466,0.0282 -0.70224,0.0552 -1.01684,0.06 l -0.57201,0.009 -1.9407,-2.75326 c -1.67544,-2.37693 -1.97184,-2.75783 -2.16853,-2.78669 l -0.22784,-0.0334 v 2.78669 2.7867 h -0.84016 -0.84017 z m 3.87701,-1.12919 c 0.73644,-0.21243 1.09393,-0.97808 0.9305,-1.99287 -0.15692,-0.9744 -0.60477,-1.25387 -2.14698,-1.33981 l -0.82017,-0.0457 v 1.78383 1.78383 l 0.86017,-0.049 c 0.4731,-0.027 1.00251,-0.0901 1.17648,-0.14026 z"
   id="path623"
   transform="scale(26.458334)" /><path
   style="fill:#f2f2f2;stroke-width:0.0800159"
   d="m 193.34433,135.56422 c -0.11623,-0.29561 -0.66231,-1.67919 -1.21351,-3.07462 -0.97908,-2.47868 -1.56083,-4.07756 -1.73434,-4.76671 -0.0474,-0.18836 -0.11491,-0.32475 -0.14996,-0.30309 -0.0351,0.0217 -0.14646,0.3198 -0.24759,0.66254 -0.178,0.60328 -1.20289,3.35365 -2.40284,6.4482 -0.3208,0.8273 -0.60985,1.47543 -0.64234,1.44029 -0.0612,-0.0662 -3.06181,-7.87151 -4.50361,-11.71495 l -0.19838,-0.52885 0.6523,-0.0508 c 0.35877,-0.0279 0.82076,-0.051 1.02664,-0.0513 l 0.37432,-4.8e-4 0.17388,0.46009 c 0.9319,2.46584 2.34624,6.36884 2.52262,6.96138 0.12118,0.40708 0.24496,0.74014 0.27507,0.74014 0.0301,0 0.13228,-0.28968 0.22705,-0.64375 0.0948,-0.35406 0.72862,-2.10941 1.40858,-3.90077 1.43809,-3.78866 1.45046,-3.81931 1.5054,-3.72723 0.1366,0.22893 2.16325,5.67327 2.56535,6.89148 0.26511,0.80316 0.50379,1.46029 0.53041,1.46029 0.0266,0 0.1485,-0.33307 0.27085,-0.74015 0.12235,-0.40708 0.7337,-2.24777 1.35856,-4.09042 l 1.1361,-3.35028 0.91117,0.0473 c 0.50115,0.026 0.92577,0.0619 0.9436,0.0797 0.0288,0.0288 -0.70115,2.01955 -3.65693,9.97424 -0.4497,1.21024 -0.84091,2.22625 -0.86936,2.2578 -0.0284,0.0316 -0.14682,-0.18449 -0.26304,-0.48009 z"
   id="path625"
   transform="scale(26.458334)" /><path
   style="fill:#f2f2f2;stroke-width:0.0800159"
   d="m 207.36109,135.83901 c -2.19174,-0.65511 -3.92883,-2.47218 -4.49187,-4.69869 -0.13912,-0.55014 -0.16123,-0.82984 -0.13187,-1.66792 0.0304,-0.86869 0.0707,-1.111 0.29351,-1.76481 0.32287,-0.94752 0.9081,-1.84295 1.7153,-2.62446 0.48809,-0.47256 0.75612,-0.65527 1.42787,-0.97332 1.05062,-0.49745 1.53901,-0.60077 2.82738,-0.59811 1.23657,0.003 1.7528,0.11924 2.82137,0.63777 0.9183,0.44561 1.67213,1.13047 2.33479,2.12115 0.80053,1.19682 1.09828,2.31639 1.02084,3.83858 -0.13352,2.62474 -2.09621,5.01122 -4.73646,5.75916 -0.81184,0.22998 -2.25937,0.21619 -3.08086,-0.0293 z m 2.50895,-1.69917 c 2.47905,-0.63917 3.9829,-3.3395 3.21449,-5.77196 -0.57097,-1.80743 -1.80367,-2.87503 -3.7211,-3.22273 -0.80787,-0.1465 -1.96996,0.12064 -2.86614,0.65885 -0.52195,0.31346 -1.33857,1.17096 -1.63659,1.71851 -0.57326,1.05328 -0.61799,3.17703 -0.0886,4.20756 0.39514,0.76919 1.33102,1.66172 2.20891,2.10658 0.84426,0.42781 1.95399,0.54428 2.88904,0.30319 z"
   id="path627"
   transform="scale(26.458334)" /><path
   style="fill:#f2f2f2;stroke-width:0.0800159"
   d="m 220.96378,129.70879 v -5.9981 l 1.62033,0.0386 c 2.24931,0.0536 2.58641,0.0821 3.1889,0.26986 0.93668,0.29185 1.53124,0.99713 1.79864,2.13354 0.22859,0.97151 0.0453,2.04337 -0.48694,2.84764 -0.28533,0.43117 -1.06222,0.91813 -1.64892,1.03356 -0.25916,0.051 -0.47121,0.11193 -0.47121,0.13543 0,0.0459 1.39929,1.9152 3.12174,4.17029 l 1.06419,1.39328 -1.10813,-0.0531 c -0.60947,-0.0292 -1.12822,-0.0823 -1.15278,-0.11798 -0.0246,-0.0357 -0.90311,-1.25985 -1.95233,-2.72041 -1.5518,-2.16018 -1.94189,-2.65557 -2.09108,-2.65557 -0.12256,0 -0.19941,0.0597 -0.23166,0.18003 -0.0265,0.099 -0.0487,1.34127 -0.0493,2.76055 l -0.001,2.58051 h -0.80016 -0.80016 z m 3.28065,-1.04777 c 1.15975,-0.1857 1.52031,-0.58615 1.52031,-1.68854 0,-0.73624 -0.21538,-1.21754 -0.64331,-1.43753 -0.34158,-0.17561 -1.14032,-0.30873 -1.85719,-0.30953 l -0.54011,-6.1e-4 v 1.76035 1.76035 l 0.5001,-6.1e-4 c 0.27506,-3.3e-4 0.73415,-0.0381 1.0202,-0.0839 z"
   id="path629"
   transform="scale(26.458334)" /><path
   style="fill:#f2f2f2;stroke-width:0.0800159"
   d="m 233.76632,129.7057 v -6.00119 h 0.88018 0.88017 l 0.008,2.30046 c 0.004,1.26525 0.0317,2.38473 0.0606,2.48774 0.0464,0.16514 0.30342,-0.1064 2.17245,-2.29519 l 2.11982,-2.48249 1.1462,-0.005 1.1462,-0.005 -1.07108,1.18024 c -0.58909,0.64912 -1.65424,1.84087 -2.36699,2.64831 l -1.29591,1.46808 0.25908,0.33228 c 0.14249,0.18275 1.31872,1.64653 2.61383,3.25285 1.29512,1.60632 2.38943,2.96559 2.4318,3.0206 0.0608,0.079 -0.16792,0.10002 -1.08655,0.10002 h -1.1636 l -2.20039,-2.78055 c -1.21022,-1.5293 -2.32784,-2.92458 -2.48359,-3.10061 l -0.2832,-0.32007 -0.003,3.10062 -0.003,3.10061 h -0.88017 -0.88018 z"
   id="path631"
   transform="scale(26.458334)" /><path
   style="fill:#f2f2f2;stroke-width:0.0800159"
   d="m 254.57044,129.7057 v -6.00119 h 3.28065 3.28065 v 0.80016 0.80016 h -2.40047 -2.40048 v 1.5203 1.5203 h 2.40048 2.40047 v 0.88018 0.88017 h -2.40047 -2.40048 v 1.96039 1.96039 h 2.40048 2.40047 v 0.84016 0.84017 h -3.28065 -3.28065 z"
   id="path633"
   transform="scale(26.458334)" /><path
   style="fill:#f2f2f2;stroke-width:0.0800159"
   d="m 274.24259,134.16455 -0.6919,-1.53827 -2.47277,-0.0211 -2.47276,-0.0211 -0.70946,1.52142 -0.70946,1.52141 h -0.98684 c -0.54277,0 -0.98685,-0.0133 -0.98685,-0.0296 0,-0.0257 3.33867,-7.0987 5.16713,-10.94659 0.34871,-0.73384 0.65462,-1.30996 0.6798,-1.28026 0.0426,0.0502 2.17983,4.60467 4.66262,9.93597 l 1.06202,2.28045 -0.44473,0.0513 c -0.2446,0.0282 -0.66076,0.0543 -0.92482,0.058 l -0.48009,0.007 -0.69189,-1.53827 z m -1.34852,-3.1719 c 0,-0.11124 -1.70101,-4.05484 -1.78538,-4.13921 -0.0226,-0.0226 -0.0823,0.1579 -0.13276,0.401 -0.0505,0.2431 -0.25522,0.77706 -0.455,1.18658 -0.50344,1.03197 -1.14755,2.46445 -1.14755,2.55211 0,0.0416 0.75568,0.0728 1.76035,0.0728 1.01314,0 1.76034,-0.0311 1.76034,-0.0733 z"
   id="path635"
   transform="scale(26.458334)" /><path
   style="fill:#f2f2f2;stroke-width:0.0800159"
   d="m 283.77623,136.05173 c -0.86337,-0.14436 -1.74455,-0.64102 -2.2372,-1.26094 -0.35257,-0.44365 -0.74486,-1.15315 -0.70063,-1.26714 0.0297,-0.0766 0.75461,-0.42782 1.38519,-0.67115 0.0482,-0.0186 0.14843,0.1252 0.22266,0.31958 0.34149,0.89419 1.10772,1.30651 2.29968,1.23751 0.7013,-0.0406 1.07819,-0.23617 1.48818,-0.77223 0.19052,-0.2491 0.22664,-0.38049 0.25118,-0.91375 0.0481,-1.04469 -0.15402,-1.29915 -1.67099,-2.10378 -1.84997,-0.98124 -2.97716,-1.85521 -3.37225,-2.61464 -0.24565,-0.47219 -0.30413,-1.71648 -0.10904,-2.32002 0.29758,-0.92063 0.90558,-1.56861 1.79089,-1.90869 0.57145,-0.21951 1.97413,-0.3012 2.64199,-0.15386 0.93345,0.20594 1.85395,0.83139 2.19541,1.4917 l 0.12094,0.23387 -0.7063,0.37969 -0.70631,0.37969 -0.29516,-0.36021 c -0.48509,-0.59198 -0.76442,-0.72144 -1.55803,-0.72206 -0.603,-4.7e-4 -0.72381,0.0251 -1.06523,0.22583 -0.53719,0.31576 -0.69445,0.60499 -0.69482,1.27791 -1.8e-4,0.32217 0.0476,0.63664 0.11704,0.771 0.23256,0.44972 0.87323,0.89815 2.31657,1.62145 1.65358,0.82867 2.20461,1.27201 2.60811,2.09842 0.77165,1.58038 -0.004,3.77806 -1.62189,4.59609 -0.7752,0.39193 -1.88796,0.57151 -2.69999,0.43573 z"
   id="path637"
   transform="scale(26.458334)" /><path
   style="fill:#f2f2f2;stroke-width:0.0800159"
   d="m 294.01826,129.7057 v -6.00119 h 0.88017 0.88018 v 6.00119 6.00119 h -0.88018 -0.88017 z"
   id="path639"
   transform="scale(26.458334)" /><path
   style="fill:#f2f2f2;stroke-width:0.0800159"
   d="m 302.17988,129.7057 v -6.00119 h 3.32066 3.32065 v 0.80016 0.80016 h -2.44048 -2.44048 v 1.5203 1.5203 h 2.44048 2.44048 v 0.88018 0.88017 h -2.44048 -2.44048 v 1.96039 1.96039 h 2.44048 2.44048 v 0.84016 0.84017 h -3.32065 -3.32066 z"
   id="path641"
   transform="scale(26.458334)" /><path
   style="fill:#f2f2f2;stroke-width:0.0800159"
   d="m 314.50232,129.71179 v -5.99509 l 1.98039,0.0419 c 2.72694,0.0577 3.4133,0.2271 4.01748,0.99145 0.66317,0.83897 0.88565,1.67029 0.734,2.74265 -0.10239,0.72399 -0.28514,1.15741 -0.68497,1.62453 -0.32988,0.3854 -1.06163,0.79036 -1.68323,0.93153 l -0.45583,0.10352 2.04687,2.69385 c 1.12578,1.48161 2.04688,2.71339 2.04688,2.73729 0,0.0239 -0.46119,0.0434 -1.02486,0.0434 h -1.02485 l -1.91573,-2.71843 c -1.71903,-2.43932 -1.93832,-2.71866 -2.13577,-2.72054 l -0.22005,-0.002 v 2.76054 2.76055 h -0.84016 -0.84017 z m 3.40344,-1.05358 c 1.09027,-0.20154 1.35909,-0.52564 1.35455,-1.63304 -0.006,-1.34352 -0.39347,-1.67181 -2.09746,-1.77487 l -0.82017,-0.0496 v 1.77241 1.7724 h 0.54542 c 0.29998,0 0.75793,-0.0393 1.01766,-0.0873 z"
   id="path643"
   transform="scale(26.458334)" /><path
   style="fill:#ffe6d5;stroke-width:0.226319"
   d="m 89.207659,148.97449 c 42.467011,-0.0315 112.026161,-0.0315 154.575901,0 42.54971,0.0315 7.80397,0.0572 -77.21276,0.0572 -85.016743,0 -119.830154,-0.0258 -77.363141,-0.0572 z"
   id="path718"
   transform="scale(26.458334)" /><path
   style="fill:#2dc997;stroke-width:0.226319;fill-opacity:1"
   d="m 12.108067,148.1258 v -0.79212 H 166.5708 321.03352 v 0.79212 0.79211 H 166.5708 12.108067 Z"
   id="path720"
   transform="scale(26.458334)" /><path
   style="fill:#2dc997;fill-opacity:1;stroke-width:0.00390625"
   d="m 251.32324,148.98145 c 0.0338,-6.5e-4 0.0892,-6.5e-4 0.12305,0 0.0338,6.5e-4 0.006,0.001 -0.0615,0.001 -0.0677,0 -0.0954,-5.4e-4 -0.0615,-0.001 z"
   id="path640"
   transform="scale(26.458334)" /><path
   style="fill:#2dc997;fill-opacity:1;stroke-width:0.00390625"
   d="m 251.31763,148.98171 c 0.003,-0.001 0.006,-9.9e-4 0.007,3e-4 10e-4,0.001 -0.001,0.002 -0.005,0.002 -0.005,-1.9e-4 -0.005,-0.001 -0.002,-0.002 z"
   id="path642"
   transform="scale(26.458334)" /><path
   style="fill:#ff00ff;fill-opacity:1;stroke-width:0.00390625"
   d="m 12.019499,148.06445 c 0,-0.50918 4.54e-4,-0.7169 10e-4,-0.4616 5.54e-4,0.2553 5.54e-4,0.6719 0,0.92578 -5.55e-4,0.25388 -10e-4,0.045 -10e-4,-0.46418 z"
   id="path644"
   transform="scale(26.458334)" /><path
   style="fill:#ff00ff;fill-opacity:1;stroke-width:0.353553"
   d="m 89.389483,147.1666 c 42.552767,-0.0495 112.079037,-0.0495 154.502827,0 42.42379,0.0495 7.60789,0.09 -77.36866,0.09 -84.976561,-1e-5 -119.686935,-0.0405 -77.134167,-0.09 z"
   id="path715"
   transform="scale(26.458334)" /><rect
   style="fill:#2dc997;fill-opacity:1;stroke-width:26.4583"
   id="rect823"
   width="8180.5059"
   height="81.808632"
   x="317.81006"
   y="3892.9924"
   ry="0" /></g>
</svg>
